<svg width="36" height="36" viewBox="0 0 36 36" fill="none" xmlns="http://www.w3.org/2000/svg">
<path d="M24.7542 15.7542C25.1708 15.3377 25.1708 14.6623 24.7542 14.2458C24.3377 13.8292 23.6623 13.8292 23.2458 14.2458L24.7542 15.7542ZM18 21L17.2458 21.7542C17.6623 22.1708 18.3377 22.1708 18.7542 21.7542L18 21ZM12.7542 14.2458C12.3377 13.8292 11.6623 13.8292 11.2458 14.2458C10.8292 14.6623 10.8292 15.3377 11.2458 15.7542L12.7542 14.2458ZM23.2458 14.2458L17.2458 20.2458L18.7542 21.7542L24.7542 15.7542L23.2458 14.2458ZM18.7542 20.2458L12.7542 14.2458L11.2458 15.7542L17.2458 21.7542L18.7542 20.2458Z" fill="#C6D6FF"/>
</svg>
