<svg width="22" height="22" viewBox="0 0 22 22" fill="none" xmlns="http://www.w3.org/2000/svg">
<path d="M14.7167 9.38389C14.99 9.11052 14.99 8.66731 14.7167 8.39394C14.4433 8.12057 14.0001 8.12057 13.7267 8.39394L14.7167 9.38389ZM10.6661 12.4445L10.1711 12.9394C10.3024 13.0707 10.4805 13.1445 10.6661 13.1445C10.8518 13.1445 11.0298 13.0707 11.1611 12.9394L10.6661 12.4445ZM7.60554 8.39394C7.33218 8.12057 6.88896 8.12057 6.61559 8.39394C6.34223 8.66731 6.34223 9.11052 6.61559 9.38389L7.60554 8.39394ZM13.7267 8.39394L10.1711 11.9495L11.1611 12.9394L14.7167 9.38389L13.7267 8.39394ZM11.1611 11.9495L7.60554 8.39394L6.61559 9.38389L10.1711 12.9394L11.1611 11.9495Z" fill="#8C9FC5"/>
</svg>
