<svg width="26" height="26" viewBox="0 0 26 26" fill="none" xmlns="http://www.w3.org/2000/svg">
<path d="M20.5859 4.33325H5.41927C4.82096 4.33325 4.33594 4.81828 4.33594 5.41659V20.5833C4.33594 21.1816 4.82096 21.6666 5.41927 21.6666H20.5859C21.1842 21.6666 21.6693 21.1816 21.6693 20.5833V5.41659C21.6693 4.81828 21.1842 4.33325 20.5859 4.33325Z" stroke="#333333" stroke-width="1.70667" stroke-linecap="round" stroke-linejoin="round"/>
<path d="M17.3359 17.3333H17.3379V17.3353H17.3359V17.3333Z" stroke="#333333" stroke-width="1.70667" stroke-linecap="round" stroke-linejoin="round"/>
<path d="M13 17.3333H13.002V17.3353H13V17.3333Z" stroke="#333333" stroke-width="1.70667" stroke-linecap="round" stroke-linejoin="round"/>
<path d="M8.66406 17.3333H8.66606V17.3353H8.66406V17.3333Z" stroke="#333333" stroke-width="1.70667" stroke-linecap="round" stroke-linejoin="round"/>
<path d="M17.3359 13H17.3379V13.002H17.3359V13Z" stroke="#333333" stroke-width="1.70667" stroke-linecap="round" stroke-linejoin="round"/>
<path d="M13 13H13.002V13.002H13V13Z" stroke="#333333" stroke-width="1.70667" stroke-linecap="round" stroke-linejoin="round"/>
<path d="M8.66406 13H8.66606V13.002H8.66406V13Z" stroke="#333333" stroke-width="1.70667" stroke-linecap="round" stroke-linejoin="round"/>
<path d="M4.33594 8.66675H21.6693" stroke="#333333" stroke-width="1.70667" stroke-linecap="round" stroke-linejoin="round"/>
<path d="M17.3359 2.16675V4.33341" stroke="#333333" stroke-width="1.70667" stroke-linecap="round" stroke-linejoin="round"/>
<path d="M8.66406 2.16675V4.33341" stroke="#333333" stroke-width="1.70667" stroke-linecap="round" stroke-linejoin="round"/>
</svg>
