<svg width="56" height="51" viewBox="0 0 56 51" fill="none" xmlns="http://www.w3.org/2000/svg">
<g clip-path="url(#clip0_312_78)">
<path d="M23.3898 48C23.3398 47.52 23.1798 46.97 22.9698 46.41C22.9198 46.27 22.8598 46.1401 22.7998 45.9901C22.7398 45.8501 22.6798 45.71 22.6198 45.57C22.4998 45.29 22.3598 45.03 22.2298 44.78C22.0998 44.54 21.9498 44.29 21.7898 44.05C21.7498 43.99 21.7098 43.93 21.6698 43.87L21.6098 43.78L21.5498 43.69C21.4698 43.57 21.3798 43.46 21.2898 43.35C21.1998 43.24 21.1198 43.1401 21.0298 43.0401C20.9898 42.9901 20.9398 42.9401 20.8998 42.9001C20.8598 42.8501 20.8098 42.8101 20.7698 42.7701C20.5998 42.6001 20.4298 42.4701 20.2598 42.3801C20.1898 42.9301 20.2198 43.5801 20.3698 44.2701C20.4398 44.6101 20.5398 44.95 20.6698 45.28C20.7298 45.45 20.7998 45.61 20.8698 45.78C20.9398 45.94 21.0198 46.0901 21.1098 46.2401C21.2398 46.4801 21.3998 46.72 21.5798 46.94C21.7598 47.15 21.9498 47.35 22.1498 47.53C22.2498 47.62 22.3498 47.7 22.4498 47.78C22.4798 47.8 22.5098 47.82 22.5398 47.84L22.3498 47.7901C22.1998 47.7501 22.0398 47.71 21.8898 47.66L20.9698 47.37C20.6698 47.26 20.3698 47.1501 20.0598 47.0401C19.9798 47.0101 19.9098 46.99 19.8298 46.96L19.6098 46.87L19.2498 46.7201C19.2498 46.7201 19.2598 46.69 19.2598 46.67C19.2898 46.2 19.2298 45.64 19.1198 45.07C19.0698 44.78 18.9998 44.4901 18.9298 44.2001C18.8898 44.0601 18.8498 43.91 18.8098 43.78C18.7698 43.64 18.7198 43.5 18.6798 43.37C18.5998 43.11 18.4998 42.85 18.3798 42.59C18.3198 42.46 18.2598 42.3301 18.1998 42.2001C18.1398 42.0701 18.0698 41.9501 18.0098 41.8301C17.9398 41.7101 17.8698 41.6001 17.8098 41.4901C17.7398 41.3801 17.6698 41.27 17.5998 41.18C17.5298 41.08 17.4598 41 17.3898 40.92C17.3498 40.88 17.3198 40.8501 17.2798 40.8101C17.2498 40.7801 17.2098 40.74 17.1698 40.71C17.1298 40.84 17.0898 40.98 17.0598 41.12C17.0298 41.26 17.0098 41.41 16.9898 41.57C16.9598 41.88 16.9398 42.21 16.9598 42.55C16.9598 42.9 17.0098 43.2401 17.0798 43.5801C17.1398 43.9201 17.2298 44.2701 17.3398 44.5801C17.4298 44.8301 17.5398 45.0901 17.6798 45.3301C17.7498 45.4501 17.8198 45.57 17.8998 45.68C17.9798 45.79 18.0598 45.9 18.1398 46C18.2498 46.14 18.3598 46.26 18.4698 46.37C17.5298 45.94 16.6198 45.45 15.7498 44.91C15.6598 44.86 15.5798 44.8001 15.4998 44.7401C15.5098 44.7201 15.5198 44.7 15.5298 44.68C15.6398 44.23 15.6698 43.6801 15.6598 43.1101C15.6598 42.8201 15.6398 42.5301 15.6198 42.2401C15.5998 41.9501 15.5598 41.67 15.5198 41.39C15.4798 41.13 15.4298 40.86 15.3498 40.59C15.2798 40.32 15.2098 40.0401 15.1098 39.7901C15.0198 39.5401 14.9298 39.29 14.8198 39.09C14.7198 38.88 14.5998 38.71 14.4798 38.57C14.2298 39.05 14.0598 39.65 13.9798 40.32C13.9598 40.49 13.9398 40.6601 13.9298 40.8301C13.9298 41.0001 13.9298 41.17 13.9298 41.34C13.9298 41.51 13.9398 41.68 13.9598 41.85C13.9698 42.02 13.9898 42.19 14.0198 42.35C14.1098 42.86 14.2998 43.41 14.5498 43.85C14.6098 43.96 14.6698 44.07 14.7398 44.17C14.7698 44.22 14.7998 44.26 14.8298 44.3C14.0798 43.78 13.3498 43.22 12.6598 42.62C12.5098 42.49 12.3598 42.3501 12.2098 42.2201C12.2198 42.2001 12.2398 42.18 12.2498 42.16C12.4298 41.74 12.5498 41.22 12.6298 40.67C12.6698 40.39 12.7098 40.1 12.7298 39.82C12.7398 39.68 12.7498 39.5401 12.7598 39.4001C12.7598 39.2601 12.7698 39.12 12.7798 38.98C12.7798 38.72 12.7798 38.45 12.7498 38.18C12.7298 37.91 12.6998 37.63 12.6498 37.37C12.6398 37.3 12.6298 37.24 12.6098 37.18C12.6098 37.15 12.5998 37.12 12.5898 37.09L12.5698 37C12.5398 36.88 12.5098 36.7601 12.4798 36.6501C12.4498 36.5401 12.4098 36.44 12.3698 36.35C12.3498 36.3 12.3298 36.2601 12.2998 36.2201C12.2798 36.1801 12.2598 36.14 12.2298 36.1C12.1498 36.21 12.0798 36.32 11.9998 36.44C11.9298 36.56 11.8598 36.6901 11.7998 36.8301C11.6698 37.1001 11.5598 37.4 11.4598 37.71C11.4098 37.87 11.3698 38.03 11.3298 38.19C11.2998 38.35 11.2698 38.52 11.2398 38.68C11.2198 38.85 11.1998 39.01 11.1798 39.18C11.1698 39.35 11.1598 39.51 11.1598 39.67C11.1598 40.18 11.2598 40.74 11.4298 41.21C11.4898 41.39 11.5598 41.56 11.6398 41.71C10.8498 40.95 10.1098 40.14 9.42979 39.28C9.44979 39.26 9.46979 39.2401 9.48979 39.2201C9.72979 38.8501 9.92979 38.36 10.0998 37.84C10.1898 37.58 10.2698 37.3 10.3298 37.03C10.3598 36.89 10.3898 36.7601 10.4198 36.6301C10.4498 36.5001 10.4698 36.36 10.4998 36.23C10.5498 35.98 10.5798 35.7101 10.5998 35.4501C10.5998 35.3201 10.6098 35.18 10.6198 35.05C10.6198 34.91 10.6198 34.7801 10.6198 34.6501C10.6198 34.5201 10.6198 34.3901 10.5998 34.2701C10.5998 34.1501 10.5798 34.03 10.5698 33.92C10.5398 33.7 10.4898 33.5 10.4198 33.34C10.0598 33.7 9.71979 34.2 9.42979 34.78C9.35979 34.93 9.29979 35.0701 9.23979 35.2201C9.17979 35.3701 9.12979 35.53 9.07979 35.68C8.97979 35.99 8.89979 36.3201 8.84979 36.6301C8.80979 36.8801 8.78979 37.1401 8.78979 37.4001C8.78979 37.5301 8.78979 37.6601 8.80979 37.7901C8.81979 37.9201 8.83979 38.04 8.85979 38.16C8.87979 38.28 8.90979 38.4 8.92979 38.51C8.93979 38.57 8.95979 38.62 8.96979 38.67V38.7001C8.33979 37.8401 7.74978 36.94 7.21978 36C7.24978 35.99 7.26978 35.9701 7.28978 35.9501C7.57978 35.6301 7.84979 35.18 8.08979 34.71C8.20979 34.47 8.32979 34.2201 8.43979 33.9701C8.54979 33.7201 8.63978 33.4601 8.72978 33.2201C8.80978 32.9901 8.88979 32.7301 8.94979 32.4701C8.97979 32.3401 9.00979 32.2101 9.02979 32.0801C9.04979 31.9501 9.07979 31.8201 9.09979 31.6901C9.13979 31.4401 9.15979 31.19 9.15979 30.97C9.15979 30.75 9.15979 30.55 9.10979 30.38C8.90979 30.53 8.69979 30.71 8.49979 30.92C8.29979 31.13 8.09978 31.37 7.92978 31.63C7.57978 32.14 7.26978 32.75 7.07978 33.34C7.03978 33.46 7.00978 33.5801 6.97978 33.7001C6.94978 33.8201 6.91978 33.9501 6.90978 34.0801C6.87978 34.3301 6.85978 34.58 6.86978 34.82C6.86978 34.94 6.86978 35.06 6.88978 35.17C6.88978 35.25 6.90978 35.3301 6.92978 35.4001C6.43978 34.4601 5.99979 33.49 5.62979 32.5C5.65979 32.5 5.68978 32.48 5.71978 32.46C6.03978 32.19 6.37979 31.81 6.68979 31.38C6.83979 31.17 6.98979 30.94 7.12979 30.72C7.26979 30.49 7.40979 30.2601 7.52979 30.0301C7.74979 29.6001 7.96979 29.0901 8.09979 28.6101C8.12979 28.4901 8.16979 28.37 8.19979 28.26C8.22979 28.14 8.24979 28.03 8.26979 27.93C8.28979 27.82 8.29979 27.7201 8.29979 27.6201C8.29979 27.5201 8.29979 27.43 8.29979 27.35C8.18979 27.41 8.07978 27.4701 7.96978 27.5401C7.85978 27.6101 7.73978 27.6901 7.63978 27.7801C7.41978 27.9501 7.19978 28.16 6.98978 28.38C6.55978 28.83 6.19978 29.36 5.90978 29.91C5.87978 29.96 5.84978 30.02 5.82978 30.08C5.79978 30.14 5.77979 30.19 5.75979 30.25C5.70979 30.36 5.66978 30.48 5.63978 30.6C5.56978 30.84 5.50978 31.08 5.47978 31.31C5.44978 31.53 5.43978 31.73 5.44978 31.92C5.18978 31.18 4.96978 30.43 4.78978 29.67L4.61978 28.9C4.61978 28.9 4.68978 28.9001 4.71978 28.8701C5.07978 28.6601 5.44978 28.33 5.80978 27.97C6.17978 27.6 6.52979 27.1901 6.81979 26.7801C6.95979 26.5901 7.09978 26.38 7.22978 26.16C7.28978 26.05 7.34978 25.94 7.40978 25.83C7.46978 25.72 7.52978 25.6 7.57978 25.49C7.68978 25.27 7.76978 25.05 7.82978 24.84C7.89978 24.64 7.93978 24.4501 7.94978 24.2801C7.71978 24.3601 7.47978 24.4701 7.23978 24.6101C7.11978 24.6801 6.99978 24.76 6.86978 24.84C6.74978 24.92 6.62979 25.01 6.50979 25.1C6.04979 25.47 5.57978 25.94 5.24978 26.42C5.10978 26.61 4.98979 26.83 4.87979 27.05C4.77979 27.27 4.68979 27.5 4.62979 27.72C4.59979 27.83 4.56979 27.9401 4.54979 28.0401C4.52979 28.1401 4.50978 28.24 4.49978 28.33V28.25L4.40978 27.7701C4.34978 27.4501 4.31979 27.13 4.27979 26.81L4.21978 26.33C4.19978 26.17 4.19978 26.01 4.17978 25.85L4.13978 25.3701V25.2701C4.13978 25.2701 4.20978 25.27 4.24978 25.26C4.43978 25.18 4.62978 25.08 4.82978 24.96C5.02978 24.84 5.23979 24.7001 5.43979 24.5401C5.84979 24.2301 6.22978 23.8801 6.57978 23.5301C6.89978 23.2001 7.23978 22.78 7.49978 22.38C7.63978 22.18 7.74979 21.9801 7.83979 21.7901C7.92979 21.6001 7.99978 21.42 8.02978 21.26C7.79978 21.3 7.54979 21.38 7.29979 21.48C7.16979 21.53 7.04979 21.59 6.91979 21.65C6.78979 21.71 6.66978 21.7801 6.53978 21.8601C6.28978 22.0101 6.02978 22.1801 5.78978 22.3701C5.55978 22.5601 5.32979 22.76 5.12979 22.97C5.08979 23.01 5.04979 23.05 5.00979 23.1C4.96979 23.14 4.92979 23.19 4.89979 23.24C4.82979 23.33 4.75979 23.4301 4.68979 23.5301C4.61979 23.6301 4.55978 23.73 4.49978 23.83C4.43978 23.93 4.38978 24.03 4.34978 24.14C4.25978 24.34 4.18979 24.54 4.12979 24.72V24.75L4.09978 23.92C4.09978 23.76 4.09978 23.6001 4.09978 23.4401V23.2001C4.09978 23.1201 4.09978 23.04 4.09978 22.96L4.11978 22.48V22.24L4.14979 22C4.14979 21.91 4.16979 21.82 4.16979 21.73C4.19979 21.74 4.24978 21.75 4.28978 21.73C4.47978 21.68 4.67978 21.6101 4.88978 21.5201C5.09978 21.4301 5.31979 21.3201 5.52979 21.2001C5.74979 21.0801 5.95979 20.95 6.16979 20.81C6.37979 20.67 6.58979 20.53 6.77979 20.38C6.95979 20.24 7.14979 20.08 7.31979 19.91C7.40979 19.83 7.48978 19.74 7.57978 19.65C7.66978 19.56 7.74978 19.47 7.82978 19.39C8.13978 19.03 8.38979 18.68 8.48979 18.38C8.02979 18.4 7.49979 18.54 6.95978 18.75C6.42979 18.97 5.88978 19.28 5.44978 19.63C5.08978 19.91 4.76979 20.28 4.52979 20.65C4.40979 20.83 4.31978 21.0201 4.23978 21.1901C4.23978 21.2101 4.22978 21.23 4.21978 21.24C4.31978 20.26 4.47978 19.28 4.69978 18.31C4.72978 18.33 4.77979 18.34 4.81979 18.34C5.19979 18.3 5.64978 18.17 6.09978 17.99C6.20978 17.95 6.31979 17.9 6.43979 17.85C6.54979 17.8 6.66979 17.7501 6.77979 17.7001C6.99979 17.5901 7.21979 17.4801 7.41979 17.3601C7.61979 17.2501 7.81979 17.12 8.00979 16.98C8.09979 16.91 8.19979 16.84 8.29979 16.76C8.38979 16.69 8.48979 16.6101 8.56979 16.5401C8.73979 16.3901 8.89979 16.23 9.03979 16.08C9.10979 16 9.16979 15.93 9.21979 15.86C9.26979 15.79 9.31979 15.72 9.34979 15.64C9.12979 15.62 8.87979 15.62 8.61979 15.65C8.35979 15.68 8.08979 15.73 7.81979 15.8C7.67979 15.84 7.53978 15.87 7.40978 15.92C7.27978 15.97 7.13979 16.02 7.00979 16.07C6.73979 16.18 6.47978 16.3101 6.23978 16.4501C6.04978 16.5601 5.85979 16.7 5.68979 16.84C5.51979 16.99 5.35978 17.15 5.21978 17.31C5.07978 17.47 4.95978 17.6401 4.86978 17.7901C4.84978 17.8201 4.83979 17.85 4.81979 17.88C5.04979 16.93 5.33978 16 5.67978 15.09C5.70978 15.12 5.74979 15.14 5.79979 15.14C6.17979 15.15 6.62978 15.08 7.07978 14.97C7.30978 14.92 7.53978 14.85 7.76978 14.78C7.99978 14.71 8.21979 14.62 8.43979 14.54C8.63979 14.46 8.84979 14.36 9.05979 14.25C9.26979 14.14 9.46979 14.02 9.65979 13.89C10.0398 13.64 10.3598 13.37 10.5298 13.12C10.3198 13.07 10.0798 13.05 9.81979 13.04C9.56979 13.04 9.29979 13.04 9.02979 13.08C8.47979 13.15 7.91978 13.3 7.40978 13.51C7.00978 13.68 6.60978 13.93 6.30978 14.21C6.10978 14.39 5.93979 14.57 5.81979 14.74C5.84979 14.65 5.88979 14.56 5.91979 14.48C6.24979 13.68 6.61978 12.9 7.01978 12.13C7.03978 12.16 7.08978 12.19 7.13978 12.2C7.49978 12.26 7.93979 12.25 8.39979 12.2C8.62979 12.18 8.85979 12.14 9.08979 12.1C9.20979 12.08 9.31979 12.05 9.42979 12.03C9.53979 12.01 9.65979 11.98 9.75979 11.95C9.96979 11.9 10.1798 11.82 10.3898 11.74C10.6098 11.66 10.8198 11.57 11.0098 11.47C11.2098 11.37 11.3998 11.27 11.5598 11.16C11.6398 11.1 11.7098 11.05 11.7798 11C11.8498 10.94 11.9098 10.89 11.9498 10.83C11.5498 10.69 11.0298 10.61 10.4998 10.61C10.3698 10.61 10.2298 10.61 10.0898 10.62C9.94979 10.62 9.80979 10.64 9.67979 10.66C9.40979 10.7 9.13979 10.75 8.87979 10.82C8.67979 10.88 8.46979 10.96 8.27979 11.05C8.17979 11.1 8.08978 11.15 7.98978 11.2C7.89978 11.25 7.80978 11.31 7.72978 11.37C7.55978 11.48 7.40979 11.6 7.27979 11.72C7.22979 11.76 7.19978 11.81 7.15978 11.85C7.30978 11.57 7.46979 11.29 7.62979 11.02C7.94979 10.48 8.29979 9.96005 8.65979 9.45005C8.66979 9.49005 8.71979 9.53005 8.76979 9.55005C8.93979 9.60005 9.13979 9.64005 9.33979 9.66005C9.54979 9.68005 9.75979 9.70005 9.98979 9.70005C10.4398 9.71005 10.9098 9.68005 11.3498 9.62005C11.5598 9.59005 11.7698 9.55005 11.9898 9.49005C12.2098 9.44005 12.4298 9.37005 12.6298 9.30005C13.0398 9.16005 13.3998 8.98005 13.6198 8.79005C13.4298 8.70005 13.2198 8.62005 12.9798 8.55005C12.7498 8.48005 12.4998 8.44005 12.2398 8.41005C12.1098 8.39005 11.9798 8.38005 11.8398 8.37005C11.7098 8.37005 11.5698 8.36005 11.4398 8.37005C11.1698 8.37005 10.8998 8.39005 10.6498 8.43005C10.4498 8.46005 10.2398 8.51005 10.0398 8.58005C9.93979 8.61005 9.83979 8.65005 9.73979 8.69005C9.63979 8.73005 9.54979 8.77005 9.45979 8.82005C9.27979 8.91005 9.11979 9.01005 8.98979 9.11005C8.92979 9.15005 8.88979 9.19005 8.83979 9.23005C9.16979 8.77005 9.51979 8.32005 9.88979 7.88005C10.1198 7.61005 10.3498 7.34005 10.5898 7.08005C10.5898 7.12005 10.6298 7.17005 10.6898 7.20005C11.0098 7.34005 11.4198 7.43005 11.8498 7.49005C12.0698 7.52005 12.2898 7.54005 12.5098 7.56005C12.6198 7.56005 12.7298 7.57005 12.8398 7.57005C12.9498 7.57005 13.0598 7.57005 13.1698 7.57005C13.3698 7.57005 13.5898 7.55005 13.7998 7.52005C14.0198 7.50005 14.2398 7.46005 14.4398 7.41005C14.4898 7.40005 14.5398 7.38005 14.5898 7.37005C14.6398 7.36005 14.6898 7.34005 14.7398 7.33005C14.8398 7.30005 14.9298 7.27005 15.0198 7.24005C15.1098 7.21005 15.1898 7.17005 15.2598 7.13005C15.3298 7.09005 15.3998 7.06005 15.4598 7.01005C15.2898 6.90005 15.0898 6.80005 14.8698 6.71005C14.6498 6.62005 14.4198 6.55005 14.1698 6.49005C14.0498 6.46005 13.9198 6.43005 13.7898 6.41005C13.6598 6.39005 13.5298 6.37005 13.3998 6.36005C13.1398 6.33005 12.8798 6.32005 12.6198 6.32005C12.4198 6.32005 12.2098 6.35005 12.0098 6.39005C11.9098 6.41005 11.8098 6.43005 11.7098 6.46005C11.6098 6.49005 11.5198 6.52005 11.4298 6.55005C11.2498 6.62005 11.0798 6.69005 10.9398 6.77005C10.8698 6.81005 10.8098 6.85005 10.7498 6.89005C11.3398 6.26005 11.9498 5.66005 12.5898 5.09005C12.6198 5.06005 12.6598 5.03005 12.6898 5.00005C12.6798 5.05005 12.7198 5.10005 12.7698 5.14005C13.0698 5.31005 13.4498 5.45005 13.8598 5.55005C14.0598 5.60005 14.2798 5.65005 14.4898 5.69005C14.6998 5.73005 14.9198 5.76005 15.1198 5.78005C15.5198 5.82005 15.9598 5.81005 16.3698 5.78005C16.4698 5.77005 16.5698 5.75005 16.6698 5.74005C16.7698 5.72005 16.8598 5.71005 16.9498 5.68005C17.1298 5.64005 17.2798 5.58005 17.3998 5.51005C17.0898 5.26005 16.6798 5.04005 16.2098 4.86005C15.9798 4.77005 15.7298 4.70005 15.4798 4.65005C15.3598 4.62005 15.2298 4.60005 15.0998 4.58005C14.9698 4.56005 14.8498 4.55005 14.7298 4.53005C14.5298 4.51005 14.3298 4.51005 14.1298 4.53005C13.9298 4.55005 13.7298 4.58005 13.5498 4.62005C13.4598 4.64005 13.3698 4.67005 13.2798 4.69005C13.1998 4.72005 13.1198 4.75005 13.0498 4.78005C12.9498 4.82005 12.8598 4.87005 12.7798 4.92005C13.3698 4.41005 13.9898 3.93005 14.6198 3.48005C14.6298 3.49005 14.6398 3.50005 14.6598 3.50005C14.7698 3.50005 14.9098 3.50005 15.0598 3.47005C15.1398 3.46005 15.2198 3.44005 15.3098 3.42005C15.3998 3.40005 15.4898 3.38005 15.5798 3.35005C15.7598 3.30005 15.9598 3.22005 16.1498 3.14005C16.3398 3.06005 16.5298 2.97005 16.7098 2.87005C16.8198 2.81005 16.9398 2.74005 17.0498 2.67005C17.1598 2.60005 17.2798 2.53005 17.3898 2.46005C17.6198 2.31005 17.8398 2.16005 18.0498 2.00005C18.4698 1.69005 18.8498 1.35005 19.1098 1.02005C18.9298 0.980049 18.7198 0.970049 18.4898 0.980049C18.3798 0.980049 18.2598 0.990049 18.1398 1.01005C18.0198 1.03005 17.8998 1.05005 17.7798 1.07005C17.2898 1.17005 16.7998 1.35005 16.4198 1.56005C16.2198 1.67005 16.0198 1.80005 15.8398 1.94005C15.6498 2.08005 15.4798 2.22005 15.3198 2.38005C14.9998 2.69005 14.7598 3.02005 14.6098 3.33005C14.5898 3.38005 14.5898 3.45005 14.6098 3.48005C13.9598 3.93005 13.3398 4.41005 12.7298 4.92005C12.7998 4.85005 12.8598 4.77005 12.9298 4.66005C12.9698 4.59005 13.0198 4.52005 13.0598 4.44005C13.0998 4.36005 13.1498 4.28005 13.1898 4.20005C13.2798 4.03005 13.3598 3.84005 13.4298 3.65005C13.5098 3.46005 13.5698 3.26005 13.6198 3.06005C13.6498 2.94005 13.6798 2.81005 13.7098 2.68005C13.7398 2.55005 13.7698 2.42005 13.7898 2.29005C13.8398 2.03005 13.8798 1.75005 13.9098 1.49005C13.9698 0.970049 13.9898 0.460049 13.9298 0.0500488C13.7798 0.160049 13.6298 0.300049 13.4798 0.470049C13.4098 0.560049 13.3298 0.640049 13.2598 0.740049C13.1898 0.840049 13.1198 0.940049 13.0598 1.05005C12.7898 1.47005 12.5898 1.96005 12.4798 2.37005C12.4198 2.59005 12.3798 2.83005 12.3498 3.06005C12.3198 3.29005 12.3098 3.51005 12.3098 3.74005C12.3098 4.18005 12.3898 4.59005 12.5098 4.91005C12.5298 4.97005 12.5898 5.01005 12.6398 5.01005C12.5998 5.04005 12.5698 5.07005 12.5298 5.10005C11.8698 5.68005 11.2398 6.29005 10.6398 6.93005C10.6898 6.86005 10.7298 6.78005 10.7798 6.69005C10.8498 6.54005 10.9298 6.38005 10.9898 6.19005C11.0198 6.10005 11.0498 6.00005 11.0798 5.90005C11.1098 5.80005 11.1398 5.70005 11.1698 5.60005C11.2198 5.39005 11.2698 5.18005 11.2898 4.97005C11.3198 4.71005 11.3498 4.44005 11.3698 4.16005C11.3698 4.02005 11.3898 3.88005 11.3898 3.74005C11.3898 3.60005 11.3898 3.46005 11.3898 3.33005C11.3898 3.06005 11.3898 2.79005 11.3598 2.54005C11.3398 2.29005 11.2998 2.06005 11.2398 1.86005C11.1698 1.92005 11.0998 1.99005 11.0298 2.07005C10.9598 2.15005 10.8898 2.24005 10.8298 2.34005C10.7598 2.44005 10.6998 2.54005 10.6398 2.65005C10.6098 2.70005 10.5798 2.76005 10.5498 2.81005C10.5198 2.87005 10.4898 2.92005 10.4698 2.98005C10.3598 3.21005 10.2698 3.46005 10.1898 3.70005C10.1198 3.94005 10.0698 4.18005 10.0298 4.41005C10.0098 4.53005 9.99979 4.64005 9.98979 4.76005C9.98979 4.88005 9.97978 5.00005 9.97978 5.12005C9.97978 5.36005 9.99979 5.59005 10.0198 5.82005C10.0798 6.27005 10.1998 6.68005 10.3698 6.99005C10.3998 7.04005 10.4498 7.08005 10.4998 7.08005C10.2598 7.34005 10.0198 7.60005 9.78979 7.87005C9.41979 8.31005 9.05979 8.77005 8.71979 9.24005C8.74979 9.18005 8.77979 9.11005 8.79979 9.03005C8.85979 8.87005 8.90979 8.69005 8.95979 8.49005C8.97979 8.39005 8.99979 8.29005 9.01979 8.18005C9.03979 8.08005 9.05979 7.97005 9.06979 7.86005C9.09979 7.64005 9.10979 7.42005 9.11979 7.20005C9.11979 6.93005 9.11979 6.65005 9.09979 6.36005C9.09979 6.22005 9.07979 6.07005 9.06979 5.93005C9.05979 5.79005 9.04979 5.65005 9.02979 5.51005C8.99979 5.23005 8.94979 4.96005 8.89979 4.71005C8.84979 4.46005 8.77979 4.23005 8.69979 4.03005C8.43979 4.31005 8.20979 4.78005 8.03979 5.27005C7.95979 5.52005 7.88978 5.78005 7.84978 6.04005C7.79978 6.29005 7.77979 6.55005 7.77979 6.78005C7.76979 7.26005 7.83978 7.77005 7.94978 8.22005C8.00978 8.44005 8.07979 8.66005 8.16979 8.85005C8.24979 9.04005 8.34979 9.22005 8.44979 9.36005C8.47979 9.41005 8.53979 9.43005 8.57979 9.43005C8.20979 9.94005 7.85978 10.46 7.53978 11C7.36978 11.27 7.20978 11.55 7.05978 11.83C7.07978 11.77 7.08978 11.72 7.09978 11.65C7.13978 11.48 7.16979 11.29 7.18979 11.08C7.19979 10.98 7.20978 10.87 7.20978 10.76C7.20978 10.65 7.21978 10.54 7.21978 10.43C7.21978 10.21 7.20978 9.98005 7.17978 9.76005C7.14978 9.48005 7.10978 9.20005 7.05978 8.91005C7.02978 8.76005 7.00978 8.62005 6.97978 8.48005C6.94978 8.34005 6.91978 8.20005 6.88978 8.06005C6.74978 7.50005 6.58978 6.98005 6.36978 6.59005C6.30978 6.67005 6.25978 6.76005 6.20978 6.86005C6.15978 6.96005 6.10979 7.07005 6.06979 7.19005C5.97979 7.42005 5.90978 7.68005 5.84978 7.94005C5.79978 8.21005 5.75978 8.48005 5.74978 8.75005C5.72978 9.02005 5.74978 9.28005 5.76978 9.51005C5.77978 9.63005 5.79979 9.76005 5.81979 9.88005C5.83979 10 5.86979 10.13 5.89979 10.25C5.95979 10.49 6.03978 10.73 6.11978 10.95C6.29978 11.39 6.52978 11.78 6.76978 12.05C6.80978 12.09 6.85979 12.11 6.89979 12.11C6.48979 12.88 6.10978 13.66 5.76978 14.46C5.72978 14.55 5.69978 14.64 5.65978 14.74C5.68978 14.53 5.69979 14.28 5.68979 14C5.66979 13.57 5.62979 13.1 5.50979 12.65C5.37979 12.1 5.18978 11.5 4.98978 10.95C4.88978 10.67 4.76979 10.41 4.64979 10.17C4.52979 9.93005 4.40978 9.71005 4.26978 9.52005C4.06978 9.88005 3.95979 10.41 3.90979 10.97C3.88979 11.25 3.88979 11.53 3.90979 11.81C3.92979 12.09 3.96979 12.35 4.02979 12.58C4.08979 12.83 4.16979 13.08 4.25979 13.32C4.34979 13.56 4.45978 13.79 4.57978 14C4.81978 14.43 5.09978 14.79 5.38978 15.03C5.42978 15.06 5.47978 15.08 5.51978 15.07C5.16978 15.99 4.86979 16.94 4.62979 17.89C4.62979 17.85 4.62979 17.8101 4.62979 17.7701C4.62979 17.5901 4.58978 17.39 4.55978 17.17C4.52978 16.96 4.47978 16.73 4.40978 16.5C4.34978 16.27 4.27978 16.04 4.19978 15.83C4.08978 15.56 3.97979 15.28 3.84979 15C3.78979 14.86 3.71979 14.72 3.64979 14.58C3.57979 14.44 3.50979 14.31 3.43979 14.17C3.29979 13.9 3.14979 13.65 2.98979 13.42C2.82979 13.19 2.67979 12.98 2.51979 12.81C2.47979 12.91 2.44979 13.02 2.41979 13.13C2.39979 13.25 2.37979 13.37 2.35979 13.5C2.32979 13.76 2.31979 14.04 2.33979 14.33C2.33979 14.47 2.35979 14.62 2.37979 14.76C2.39979 14.9 2.41979 15.04 2.44979 15.18C2.50979 15.46 2.57979 15.72 2.66979 15.95C2.76979 16.2 2.87979 16.44 3.00979 16.67C3.06979 16.79 3.13979 16.9 3.20979 17.01C3.27979 17.12 3.35979 17.22 3.42979 17.33C3.72979 17.73 4.06978 18.0601 4.38978 18.2701C4.42978 18.3001 4.47978 18.31 4.51978 18.3C4.28978 19.28 4.12979 20.2701 4.01979 21.2801C4.01979 21.2501 4.01979 21.2201 4.00979 21.1901C3.97979 21.0101 3.91979 20.81 3.84979 20.59C3.71979 20.16 3.51979 19.6901 3.29979 19.2801C2.99979 18.7501 2.65979 18.2001 2.28979 17.7001C1.92979 17.2001 1.53979 16.7501 1.16979 16.4501C1.07979 16.8701 1.08979 17.4501 1.20979 18.0301C1.23979 18.1701 1.26979 18.32 1.30979 18.46C1.34979 18.6 1.39979 18.74 1.43979 18.88C1.53979 19.15 1.64979 19.41 1.76979 19.63C1.89979 19.87 2.04979 20.1 2.20979 20.31C2.36979 20.53 2.54979 20.73 2.72979 20.91C2.90979 21.09 3.09979 21.25 3.27979 21.39C3.46979 21.53 3.65979 21.64 3.83979 21.72C3.87979 21.74 3.92979 21.74 3.95979 21.73C3.95979 21.82 3.93979 21.91 3.92979 22L3.90979 22.24V22.48L3.86979 22.97C3.86979 23.05 3.86979 23.13 3.86979 23.21V23.4501C3.86979 23.6101 3.85979 23.7701 3.85979 23.9401L3.87979 24.7801C3.87979 24.7801 3.87979 24.75 3.86979 24.74C3.80979 24.56 3.72979 24.36 3.62979 24.16C3.57979 24.06 3.51979 23.95 3.46979 23.84C3.41979 23.73 3.35979 23.6301 3.28979 23.5201C3.22979 23.4101 3.15979 23.3101 3.08979 23.2001C3.05979 23.1501 3.01979 23.1 2.97979 23.05C2.94979 23 2.90979 22.95 2.86979 22.9C2.68979 22.65 2.48979 22.41 2.26979 22.16C2.05979 21.91 1.84979 21.6701 1.61979 21.4401C1.50979 21.3301 1.39979 21.2201 1.28979 21.1101C1.17979 21.0001 1.06979 20.9 0.959785 20.81C0.739785 20.62 0.519785 20.46 0.309785 20.33C0.289785 20.55 0.309785 20.81 0.349785 21.08C0.399785 21.35 0.479785 21.64 0.569785 21.92C0.769785 22.49 1.05979 23.05 1.37979 23.46C1.70979 23.9 2.11979 24.31 2.53979 24.63C2.74979 24.79 2.95979 24.9301 3.16979 25.0401C3.37979 25.1501 3.58979 25.2401 3.77979 25.2901C3.81979 25.3001 3.85979 25.2901 3.88979 25.2901V25.39L3.92979 25.88C3.93979 26.04 3.94979 26.2001 3.96979 26.3701L4.02979 26.85C4.06979 27.17 4.09978 27.5 4.15978 27.82L4.23978 28.3L4.25979 28.4C4.20979 28.3 4.16979 28.2101 4.10979 28.1201C4.05979 28.0301 3.99979 27.93 3.92979 27.83C3.79979 27.63 3.64979 27.43 3.48979 27.24C3.33979 27.04 3.16979 26.85 2.98979 26.67C2.52979 26.23 2.03979 25.7701 1.51979 25.3701C1.38979 25.2701 1.25979 25.17 1.12979 25.08C0.999785 24.99 0.879785 24.9 0.749785 24.82C0.499785 24.66 0.259785 24.52 0.0297852 24.43C0.0397852 24.66 0.0997852 24.91 0.179785 25.18C0.269785 25.45 0.389785 25.73 0.529785 26C0.599785 26.14 0.669785 26.27 0.749785 26.41C0.829785 26.54 0.919785 26.6701 1.00979 26.7901C1.18979 27.0401 1.37979 27.2601 1.55979 27.4501C1.96979 27.8501 2.43979 28.2 2.89979 28.46C3.37979 28.72 3.84979 28.8901 4.25979 28.9501C4.29979 28.9501 4.32978 28.9501 4.36978 28.9401L4.53978 29.72C4.71978 30.49 4.93978 31.26 5.19978 32.01C5.08978 31.85 4.94978 31.6901 4.78978 31.5201C4.62978 31.3401 4.44979 31.16 4.25979 30.99C4.15979 30.9 4.05979 30.82 3.95979 30.73C3.90979 30.69 3.85979 30.6501 3.80979 30.6101C3.75979 30.5701 3.70979 30.53 3.65979 30.49C3.14979 30.11 2.54979 29.73 1.97979 29.4C1.68979 29.24 1.39979 29.09 1.11979 28.96C0.979785 28.9 0.839785 28.8401 0.709785 28.7901C0.579785 28.7401 0.449785 28.7 0.329785 28.67C0.349785 28.78 0.379785 28.9101 0.429785 29.0301C0.479785 29.1501 0.529785 29.28 0.599785 29.41C0.659785 29.54 0.739785 29.67 0.809785 29.8C0.889785 29.93 0.969785 30.0601 1.06979 30.1901C1.44979 30.7001 1.88979 31.18 2.34979 31.5C2.57979 31.67 2.82979 31.83 3.07979 31.97C3.33979 32.11 3.59979 32.22 3.85979 32.32C4.37979 32.51 4.86979 32.61 5.29979 32.6C5.33979 32.6 5.36979 32.59 5.39979 32.57C5.76979 33.59 6.20978 34.5801 6.70978 35.5401C6.64978 35.4801 6.57978 35.41 6.49978 35.35C6.41978 35.27 6.32978 35.2 6.22978 35.12C6.03978 34.97 5.82979 34.81 5.60979 34.67C5.49979 34.6 5.38978 34.52 5.26978 34.46C5.15978 34.39 5.03979 34.3301 4.91979 34.2701C4.32979 33.9701 3.68979 33.67 3.03979 33.43C2.71979 33.31 2.40979 33.2 2.10979 33.12C1.80979 33.04 1.51979 32.9801 1.25979 32.9501C1.34979 33.1701 1.47979 33.42 1.63979 33.66C1.80979 33.9 2.01979 34.1501 2.24979 34.3801C2.35979 34.5001 2.47979 34.6101 2.59979 34.7201C2.71979 34.8301 2.84979 34.9301 2.97979 35.0201C3.23979 35.2101 3.48979 35.38 3.73979 35.51C4.00979 35.65 4.27978 35.77 4.55978 35.87C4.83978 35.97 5.11979 36.05 5.39979 36.1C5.95979 36.21 6.47979 36.23 6.89979 36.16C6.92979 36.16 6.95978 36.14 6.98978 36.12C7.51978 37.08 8.11979 38.01 8.77979 38.89L8.70979 38.84C8.70979 38.84 8.61979 38.78 8.56979 38.75C8.46979 38.69 8.36979 38.6201 8.25979 38.5601C8.14979 38.5001 8.03979 38.4401 7.91979 38.3801C7.79979 38.3201 7.67978 38.26 7.55978 38.21C7.31978 38.1 7.05978 37.99 6.80978 37.91C6.48978 37.81 6.15979 37.7001 5.81979 37.6101C5.64979 37.5601 5.47979 37.52 5.29979 37.48C5.12979 37.44 4.94979 37.4001 4.77979 37.3601C4.10979 37.2101 3.43979 37.1201 2.90979 37.1501C3.02979 37.3601 3.20979 37.5901 3.41979 37.8101C3.52979 37.9201 3.62979 38.03 3.75979 38.14C3.87979 38.25 4.00979 38.3501 4.14979 38.4501C4.27979 38.5501 4.41978 38.64 4.55978 38.73C4.62978 38.78 4.69978 38.8201 4.76978 38.8601C4.83978 38.9001 4.90978 38.94 4.98978 38.98C5.27978 39.13 5.56979 39.26 5.83979 39.35C5.90979 39.37 5.97978 39.4 6.05978 39.42C6.12978 39.44 6.20979 39.46 6.27979 39.48C6.42979 39.52 6.57978 39.5501 6.72978 39.5801C7.02978 39.6401 7.32979 39.67 7.60979 39.68C8.18979 39.7 8.71979 39.6401 9.13979 39.4901C9.16979 39.4901 9.18979 39.4701 9.20979 39.4501C9.89979 40.3301 10.6498 41.1701 11.4598 41.9501C11.2998 41.8701 11.1198 41.7901 10.9198 41.7201C10.4298 41.5501 9.88979 41.38 9.33979 41.3C9.16979 41.27 8.99979 41.2501 8.81979 41.2201C8.63979 41.2001 8.46979 41.1701 8.28979 41.1501C8.10979 41.1301 7.92978 41.12 7.74978 41.1C7.56978 41.09 7.38978 41.0701 7.20978 41.0601C6.85978 41.0401 6.50978 41.0401 6.17978 41.0601C6.01978 41.0601 5.85978 41.08 5.70978 41.1C5.55978 41.12 5.41978 41.14 5.28978 41.17C5.32978 41.22 5.36979 41.27 5.41979 41.32C5.46979 41.37 5.51979 41.4201 5.56979 41.4701C5.66979 41.5701 5.78978 41.66 5.90978 41.76C6.02978 41.85 6.16979 41.9501 6.29979 42.0401C6.32979 42.0601 6.36979 42.0801 6.39979 42.1101L6.50979 42.17C6.57979 42.21 6.65978 42.2501 6.72978 42.2901C7.02978 42.4501 7.34978 42.59 7.65978 42.69C7.97978 42.8 8.28979 42.88 8.57979 42.92C8.72979 42.95 8.87979 42.97 9.03979 42.98C9.19979 42.99 9.34979 43 9.50979 43C9.81979 43 10.1298 43 10.4198 42.96C11.0098 42.89 11.5398 42.7301 11.9298 42.5201C11.9498 42.5101 11.9698 42.4901 11.9898 42.4701C12.1398 42.6101 12.2898 42.7501 12.4398 42.8801C13.1398 43.4901 13.8798 44.07 14.6498 44.6C14.5898 44.58 14.5398 44.57 14.4698 44.55C14.3498 44.52 14.2298 44.4901 14.0998 44.4701C13.5798 44.3801 12.9998 44.3001 12.4398 44.3101C12.2598 44.3101 12.0898 44.3101 11.9098 44.3101C11.7298 44.3101 11.5498 44.3201 11.3598 44.3301C11.1798 44.3401 10.9898 44.35 10.7998 44.37C10.6098 44.39 10.4398 44.4 10.2598 44.42C9.53979 44.5 8.84979 44.6301 8.33979 44.8301C8.52979 45.0101 8.77979 45.17 9.05979 45.32C9.33979 45.47 9.64979 45.61 9.98979 45.71C10.3198 45.82 10.6598 45.91 10.9998 45.96C11.3398 46.01 11.6698 46.0401 11.9698 46.0401C12.2798 46.0401 12.6098 46.0201 12.9198 45.9701C13.2298 45.9201 13.5398 45.86 13.8198 45.78C14.3998 45.61 14.8998 45.3601 15.2698 45.0801C15.2898 45.0701 15.2998 45.05 15.3198 45.03C15.4098 45.09 15.4898 45.1401 15.5798 45.2001C16.4798 45.7601 17.4098 46.27 18.3698 46.71C18.1998 46.69 18.0198 46.68 17.8198 46.68C17.6898 46.68 17.5498 46.68 17.4098 46.68C17.2698 46.68 17.1198 46.6901 16.9798 46.7001C16.6898 46.7201 16.3998 46.75 16.1198 46.8C15.7598 46.87 15.3998 46.9301 15.0298 47.0201C14.6598 47.1001 14.2898 47.21 13.9398 47.3C13.5898 47.4 13.2398 47.51 12.9198 47.64C12.7598 47.7 12.6098 47.7701 12.4698 47.8301C12.3298 47.9001 12.1998 47.9601 12.0698 48.0401C12.1198 48.0801 12.1798 48.1101 12.2398 48.1501C12.2998 48.1801 12.3698 48.2101 12.4398 48.2401C12.5798 48.3001 12.7198 48.36 12.8798 48.41C13.0298 48.46 13.1998 48.51 13.3598 48.55C13.5298 48.59 13.6998 48.6201 13.8798 48.6501C14.0598 48.6801 14.2298 48.7 14.4098 48.71C14.5898 48.73 14.7598 48.73 14.9398 48.73C15.2898 48.73 15.6298 48.7001 15.9298 48.6501C16.0098 48.6401 16.0898 48.6201 16.1698 48.6101C16.2498 48.5901 16.3298 48.57 16.4098 48.55C16.5698 48.51 16.7298 48.46 16.8798 48.42C17.1898 48.32 17.4798 48.21 17.7598 48.07C18.3098 47.79 18.7798 47.46 19.0898 47.12C19.0998 47.1 19.1098 47.09 19.1198 47.07L19.4798 47.2201L19.7098 47.32C19.7898 47.35 19.8598 47.38 19.9398 47.41C20.2498 47.52 20.5498 47.64 20.8598 47.75L21.7898 48.05C21.9398 48.1 22.0998 48.14 22.2598 48.18L22.4698 48.2401C22.4698 48.2401 22.3798 48.24 22.3398 48.25C22.2098 48.27 22.0898 48.28 21.9498 48.3C21.6798 48.34 21.3998 48.4001 21.1098 48.4701C20.8298 48.5401 20.5398 48.6201 20.2698 48.7201C20.0998 48.7801 19.9198 48.85 19.7498 48.92C19.5698 48.99 19.3998 49.0601 19.2198 49.1301C18.8698 49.2801 18.5098 49.4401 18.1698 49.6101C17.4898 49.9301 16.8598 50.3 16.4198 50.68C16.6698 50.78 16.9698 50.86 17.2998 50.91C17.3798 50.92 17.4698 50.93 17.5498 50.94C17.6398 50.94 17.7198 50.96 17.8098 50.96C17.9898 50.96 18.1698 50.96 18.3498 50.96C18.5298 50.96 18.7098 50.95 18.8898 50.93H19.0198L19.1598 50.9001C19.2498 50.8901 19.3398 50.8701 19.4298 50.8601C19.7798 50.8001 20.1098 50.7101 20.4098 50.6101C20.7198 50.4901 21.0298 50.3601 21.3198 50.2001C21.4698 50.1201 21.6098 50.04 21.7398 49.96C21.8798 49.88 22.0098 49.78 22.1398 49.69C22.6498 49.32 23.0498 48.9 23.3098 48.5C23.3198 48.48 23.3298 48.4701 23.3298 48.4501C24.3998 48.7001 25.4898 48.8801 26.5898 48.9901L26.6298 48.59C25.5498 48.49 24.4798 48.3201 23.4198 48.0801C23.4198 48.0701 23.4198 48.0601 23.4198 48.0401L23.3898 48Z" fill="url(#paint0_linear_312_78)"/>
<path d="M51.6502 28.92C51.6502 28.92 51.7202 28.94 51.7602 28.93C52.1702 28.87 52.6402 28.7 53.1202 28.44C53.5802 28.18 54.0602 27.83 54.4602 27.43C54.6502 27.24 54.8302 27.02 55.0102 26.77C55.1002 26.65 55.1902 26.52 55.2702 26.39C55.3502 26.26 55.4202 26.12 55.4902 25.98C55.6302 25.71 55.7502 25.42 55.8402 25.16C55.9202 24.89 55.9702 24.63 55.9902 24.41C55.7602 24.51 55.5102 24.64 55.2702 24.8C55.1502 24.88 55.0202 24.97 54.8902 25.06C54.7602 25.15 54.6302 25.25 54.5002 25.35C53.9802 25.75 53.4802 26.2 53.0302 26.65C52.8502 26.83 52.6802 27.02 52.5302 27.22C52.3702 27.42 52.2202 27.62 52.0902 27.81C52.0302 27.91 51.9702 28 51.9102 28.1C51.8602 28.19 51.8102 28.28 51.7602 28.37L51.7802 28.28L51.8602 27.8C51.9202 27.48 51.9502 27.16 51.9902 26.83L52.0502 26.35C52.0602 26.19 52.0702 26.03 52.0802 25.86L52.1102 25.37V25.27C52.1102 25.27 52.1902 25.28 52.2302 25.27C52.4302 25.21 52.6302 25.13 52.8402 25.02C53.0502 24.91 53.2602 24.77 53.4702 24.61C53.8902 24.29 54.3002 23.89 54.6302 23.44C54.9502 23.02 55.2302 22.47 55.4402 21.9C55.5402 21.62 55.6102 21.33 55.6602 21.06C55.7002 20.79 55.7202 20.53 55.7002 20.31C55.4902 20.44 55.2702 20.6 55.0502 20.79C54.9402 20.88 54.8302 20.99 54.7202 21.09C54.6102 21.2 54.5002 21.31 54.3902 21.42C54.1702 21.65 53.9502 21.89 53.7402 22.14C53.5302 22.39 53.3302 22.64 53.1402 22.88C53.1002 22.93 53.0702 22.98 53.0302 23.03C52.9902 23.08 52.9602 23.13 52.9202 23.18C52.8502 23.28 52.7802 23.39 52.7202 23.5C52.6602 23.61 52.6002 23.71 52.5402 23.82C52.4902 23.93 52.4302 24.03 52.3802 24.14C52.2802 24.35 52.2002 24.54 52.1402 24.72C52.1402 24.74 52.1402 24.75 52.1302 24.76L52.1502 23.92C52.1502 23.76 52.1502 23.6 52.1502 23.43V23.19C52.1502 23.11 52.1502 23.03 52.1402 22.95L52.1102 22.46V22.22L52.0802 21.98C52.0802 21.89 52.0602 21.8 52.0502 21.71C52.0902 21.71 52.1302 21.71 52.1702 21.7C52.3502 21.62 52.5402 21.51 52.7302 21.37C52.9202 21.23 53.1002 21.07 53.2802 20.89C53.4602 20.71 53.6402 20.5 53.8002 20.29C53.9602 20.07 54.1102 19.84 54.2402 19.61C54.3702 19.39 54.4702 19.13 54.5702 18.86C54.6202 18.72 54.6602 18.58 54.7002 18.44C54.7402 18.3 54.7702 18.15 54.8002 18.01C54.9202 17.43 54.9302 16.86 54.8402 16.43C54.4702 16.73 54.0802 17.18 53.7202 17.68C53.3502 18.18 53.0102 18.73 52.7102 19.26C52.4802 19.68 52.2802 20.15 52.1602 20.57C52.0902 20.78 52.0402 20.99 52.0002 21.17C52.0002 21.2 52.0002 21.23 51.9902 21.26C51.8802 20.26 51.7202 19.26 51.4902 18.28C51.5302 18.28 51.5802 18.28 51.6202 18.25C51.9502 18.04 52.2802 17.72 52.5802 17.31C52.6602 17.21 52.7302 17.1 52.8002 16.99C52.8702 16.88 52.9402 16.77 53.0002 16.65C53.1302 16.42 53.2402 16.18 53.3402 15.93C53.4302 15.7 53.5002 15.44 53.5602 15.16C53.5902 15.02 53.6102 14.88 53.6302 14.74C53.6502 14.6 53.6602 14.45 53.6702 14.31C53.6902 14.02 53.6802 13.74 53.6502 13.48C53.6402 13.35 53.6202 13.22 53.5902 13.11C53.5602 12.99 53.5302 12.88 53.4902 12.79C53.3302 12.96 53.1802 13.16 53.0202 13.4C52.8702 13.63 52.7102 13.89 52.5702 14.15C52.5002 14.28 52.4302 14.42 52.3602 14.56C52.2902 14.7 52.2202 14.84 52.1602 14.98C52.0302 15.26 51.9202 15.54 51.8102 15.81C51.7202 16.03 51.6502 16.26 51.5902 16.48C51.5302 16.71 51.4802 16.94 51.4402 17.15C51.4102 17.36 51.3802 17.57 51.3702 17.75C51.3702 17.79 51.3702 17.83 51.3702 17.87C51.1302 16.91 50.8302 15.97 50.4802 15.05C50.5202 15.05 50.5702 15.04 50.6102 15.01C50.9002 14.77 51.1802 14.41 51.4202 13.98C51.5402 13.77 51.6402 13.54 51.7402 13.3C51.8302 13.06 51.9202 12.81 51.9702 12.56C52.0202 12.32 52.0702 12.06 52.0902 11.79C52.1102 11.52 52.1102 11.23 52.0902 10.95C52.0502 10.4 51.9302 9.86003 51.7302 9.50003C51.6002 9.68003 51.4702 9.90003 51.3502 10.15C51.2302 10.39 51.1202 10.66 51.0102 10.93C50.8102 11.48 50.6202 12.08 50.4902 12.63C50.3802 13.08 50.3302 13.55 50.3102 13.98C50.3102 14.26 50.3102 14.51 50.3402 14.72C50.3002 14.63 50.2702 14.53 50.2302 14.44C49.9002 13.64 49.5202 12.85 49.1002 12.09C49.1402 12.09 49.2002 12.07 49.2302 12.03C49.4802 11.76 49.7102 11.37 49.8802 10.93C49.9702 10.71 50.0402 10.47 50.1002 10.23C50.1302 10.11 50.1602 9.98003 50.1802 9.86003C50.2002 9.74003 50.2202 9.61003 50.2302 9.49003C50.2502 9.26003 50.2602 8.99003 50.2502 8.73003C50.2302 8.46003 50.2002 8.19003 50.1502 7.92003C50.0902 7.66003 50.0202 7.40003 49.9302 7.17003C49.8902 7.05003 49.8402 6.94003 49.7902 6.84003C49.7402 6.74003 49.6802 6.65003 49.6302 6.57003C49.4202 6.96003 49.2502 7.48003 49.1102 8.04003C49.0802 8.18003 49.0402 8.32003 49.0202 8.46003C48.9902 8.60003 48.9702 8.75003 48.9402 8.89003C48.8902 9.18003 48.8502 9.47003 48.8202 9.74003C48.8002 9.96003 48.7802 10.19 48.7902 10.41C48.7902 10.52 48.7902 10.63 48.8002 10.74C48.8002 10.85 48.8102 10.96 48.8202 11.06C48.8402 11.27 48.8702 11.46 48.9102 11.63C48.9202 11.69 48.9402 11.75 48.9502 11.81C48.7902 11.53 48.6302 11.25 48.4702 10.98C48.1402 10.44 47.7902 9.92003 47.4302 9.41003C47.4702 9.41003 47.5302 9.38003 47.5602 9.34003C47.6602 9.19003 47.7602 9.02003 47.8402 8.83003C47.9202 8.64003 48.0002 8.42003 48.0602 8.20003C48.1702 7.75003 48.2402 7.24003 48.2302 6.76003C48.2302 6.53003 48.2002 6.28003 48.1602 6.02003C48.1102 5.77003 48.0502 5.50003 47.9702 5.25003C47.8002 4.75003 47.5702 4.29003 47.3102 4.01003C47.2302 4.21003 47.1602 4.44003 47.1102 4.69003C47.0602 4.94003 47.0102 5.21003 46.9802 5.49003C46.9602 5.63003 46.9502 5.77003 46.9402 5.91003C46.9302 6.05003 46.9202 6.19003 46.9102 6.34003C46.8902 6.63003 46.8902 6.91003 46.8902 7.18003C46.8902 7.40003 46.9102 7.62003 46.9402 7.84003C46.9502 7.95003 46.9702 8.06003 46.9902 8.16003C47.0102 8.26003 47.0302 8.37003 47.0502 8.47003C47.0902 8.67003 47.1502 8.85003 47.2102 9.01003C47.2402 9.09003 47.2602 9.16003 47.2902 9.22003C46.9502 8.75003 46.5902 8.29003 46.2202 7.85003C45.9902 7.58003 45.7502 7.32003 45.5102 7.06003C45.5602 7.06003 45.6102 7.03003 45.6402 6.97003C45.8002 6.66003 45.9302 6.25003 45.9902 5.80003C46.0202 5.58003 46.0302 5.34003 46.0302 5.10003C46.0302 4.98003 46.0302 4.86003 46.0202 4.74003C46.0202 4.62003 46.0002 4.50003 45.9802 4.39003C45.9502 4.17003 45.9002 3.93003 45.8202 3.68003C45.7402 3.44003 45.6502 3.20003 45.5402 2.96003C45.5102 2.90003 45.4902 2.84003 45.4602 2.79003C45.4302 2.73003 45.4002 2.68003 45.3702 2.63003C45.3102 2.52003 45.2402 2.42003 45.1802 2.32003C45.1102 2.22003 45.0502 2.13003 44.9802 2.05003C44.9102 1.97003 44.8402 1.90003 44.7702 1.84003C44.7102 2.04003 44.6802 2.27003 44.6502 2.52003C44.6302 2.77003 44.6102 3.04003 44.6202 3.31003C44.6202 3.45003 44.6202 3.58003 44.6202 3.72003C44.6202 3.86003 44.6302 4.00003 44.6402 4.14003C44.6602 4.42003 44.6902 4.69003 44.7202 4.95003C44.7502 5.16003 44.7902 5.37003 44.8402 5.58003C44.8702 5.68003 44.9002 5.78003 44.9302 5.88003C44.9602 5.98003 44.9902 6.08003 45.0202 6.17003C45.0902 6.36003 45.1602 6.52003 45.2302 6.67003C45.2802 6.76003 45.3202 6.84003 45.3702 6.91003C44.7702 6.27003 44.1402 5.66003 43.4802 5.08003C43.4402 5.05003 43.4102 5.02003 43.3702 4.99003C43.4202 4.99003 43.4802 4.95003 43.5002 4.89003C43.6202 4.57003 43.6902 4.17003 43.7002 3.72003C43.7002 3.50003 43.7002 3.27003 43.6602 3.04003C43.6302 2.81003 43.5902 2.58003 43.5302 2.35003C43.4202 1.93003 43.2202 1.45003 42.9502 1.03003C42.8802 0.920029 42.8202 0.820029 42.7502 0.720029C42.6802 0.620029 42.6002 0.530029 42.5302 0.450029C42.3802 0.280029 42.2302 0.130029 42.0802 0.0300293C42.0202 0.440029 42.0302 0.940029 42.1002 1.47003C42.1302 1.73003 42.1702 2.01003 42.2202 2.27003C42.2402 2.40003 42.2702 2.53003 42.3002 2.66003C42.3302 2.79003 42.3602 2.92003 42.3902 3.04003C42.4402 3.24003 42.5102 3.44003 42.5802 3.63003C42.6502 3.82003 42.7302 4.01003 42.8202 4.18003C42.8602 4.27003 42.9102 4.35003 42.9502 4.42003C42.9902 4.50003 43.0402 4.57003 43.0802 4.64003C43.1502 4.75003 43.2202 4.83003 43.2802 4.90003C42.6802 4.39003 42.0502 3.91003 41.4002 3.46003C41.4302 3.43003 41.4302 3.36003 41.4002 3.31003C41.2602 3.00003 41.0102 2.67003 40.6902 2.36003C40.5302 2.20003 40.3602 2.06003 40.1702 1.92003C39.9802 1.78003 39.7902 1.65003 39.5902 1.54003C39.2102 1.33003 38.7202 1.15003 38.2302 1.05003C38.1102 1.02003 37.9902 1.00003 37.8702 0.990029C37.7502 0.970029 37.6302 0.970029 37.5202 0.960029C37.2902 0.960029 37.0802 0.960029 36.9002 1.00003C37.1502 1.33003 37.5302 1.66003 37.9602 1.98003C38.1702 2.14003 38.4002 2.30003 38.6202 2.44003C38.7302 2.51003 38.8502 2.58003 38.9602 2.65003C39.0702 2.72003 39.1902 2.79003 39.3002 2.85003C39.4802 2.95003 39.6702 3.04003 39.8602 3.12003C40.0502 3.20003 40.2402 3.27003 40.4302 3.33003C40.5202 3.36003 40.6102 3.38003 40.7002 3.40003C40.7902 3.42003 40.8702 3.44003 40.9502 3.45003C41.1102 3.48003 41.2402 3.49003 41.3502 3.48003C41.3702 3.48003 41.3802 3.48003 41.3902 3.46003C42.0302 3.91003 42.6402 4.39003 43.2302 4.90003C43.1502 4.85003 43.0702 4.80003 42.9602 4.76003C42.8902 4.73003 42.8102 4.70003 42.7302 4.67003C42.6502 4.64003 42.5602 4.62003 42.4602 4.60003C42.2802 4.56003 42.0802 4.52003 41.8802 4.51003C41.6802 4.50003 41.4702 4.50003 41.2802 4.51003C41.1602 4.52003 41.0302 4.53003 40.9102 4.56003C40.7802 4.58003 40.6602 4.61003 40.5302 4.63003C40.2802 4.69003 40.0402 4.76003 39.8002 4.84003C39.3302 5.02003 38.9102 5.24003 38.6102 5.49003C38.7302 5.56003 38.8902 5.62003 39.0602 5.66003C39.1502 5.68003 39.2402 5.70003 39.3402 5.72003C39.4402 5.74003 39.5402 5.75003 39.6402 5.76003C40.0502 5.80003 40.5002 5.81003 40.8902 5.76003C41.1002 5.74003 41.3102 5.71003 41.5202 5.67003C41.7302 5.63003 41.9502 5.58003 42.1502 5.53003C42.5602 5.43003 42.9502 5.29003 43.2402 5.12003C43.2902 5.09003 43.3302 5.03003 43.3202 4.98003C43.3502 5.01003 43.3902 5.04003 43.4202 5.07003C44.0602 5.64003 44.6802 6.24003 45.2602 6.87003C45.2002 6.83003 45.1402 6.79003 45.0702 6.75003C44.9302 6.67003 44.7602 6.60003 44.5802 6.53003C44.4902 6.50003 44.3902 6.47003 44.3002 6.44003C44.2002 6.41003 44.1002 6.39003 44.0002 6.37003C43.8002 6.33003 43.5902 6.31003 43.3902 6.30003C43.1402 6.30003 42.8702 6.30003 42.6102 6.34003C42.4802 6.35003 42.3502 6.37003 42.2202 6.39003C42.0902 6.41003 41.9602 6.44003 41.8402 6.47003C41.5902 6.53003 41.3502 6.61003 41.1402 6.69003C40.9202 6.78003 40.7202 6.88003 40.5502 6.99003C40.6102 7.03003 40.6802 7.07003 40.7502 7.11003C40.8202 7.15003 40.9002 7.18003 40.9902 7.22003C41.0802 7.25003 41.1702 7.28003 41.2702 7.31003C41.3202 7.32003 41.3702 7.34003 41.4202 7.35003C41.4702 7.36003 41.5202 7.38003 41.5702 7.39003C41.7802 7.44003 41.9902 7.47003 42.2102 7.50003C42.4202 7.53003 42.6402 7.55003 42.8402 7.55003C42.9502 7.55003 43.0602 7.55003 43.1702 7.55003C43.2802 7.55003 43.3902 7.55003 43.5002 7.54003C43.7202 7.53003 43.9502 7.51003 44.1602 7.47003C44.5902 7.41003 45.0002 7.32003 45.3202 7.18003C45.3702 7.16003 45.4102 7.11003 45.4202 7.06003C45.6602 7.32003 45.8902 7.59003 46.1202 7.86003C46.4802 8.30003 46.8302 8.75003 47.1702 9.21003C47.1202 9.17003 47.0802 9.13003 47.0202 9.09003C46.8802 8.99003 46.7202 8.90003 46.5502 8.80003C46.4602 8.75003 46.3702 8.71003 46.2702 8.67003C46.1702 8.63003 46.0702 8.59003 45.9702 8.56003C45.7702 8.50003 45.5602 8.44003 45.3602 8.41003C45.1002 8.38003 44.8302 8.35003 44.5702 8.35003C44.4402 8.35003 44.3002 8.35003 44.1702 8.35003C44.0402 8.35003 43.9002 8.37003 43.7702 8.39003C43.5102 8.42003 43.2602 8.47003 43.0302 8.53003C42.8002 8.60003 42.5802 8.67003 42.3902 8.77003C42.6102 8.96003 42.9702 9.14003 43.3802 9.28003C43.5802 9.35003 43.8002 9.42003 44.0202 9.47003C44.2402 9.52003 44.4502 9.57003 44.6602 9.60003C45.1002 9.66003 45.5602 9.69003 46.0202 9.68003C46.2502 9.68003 46.4602 9.66003 46.6702 9.64003C46.8802 9.62003 47.0702 9.58003 47.2402 9.53003C47.2902 9.51003 47.3402 9.47003 47.3502 9.43003C47.7102 9.94003 48.0602 10.47 48.3802 11C48.5402 11.27 48.7002 11.55 48.8502 11.83C48.8102 11.79 48.7702 11.74 48.7302 11.7C48.6102 11.58 48.4502 11.46 48.2802 11.35C48.2002 11.29 48.1102 11.24 48.0202 11.18C47.9302 11.13 47.8302 11.08 47.7302 11.03C47.5302 10.94 47.3302 10.86 47.1302 10.8C46.8702 10.73 46.6002 10.68 46.3302 10.64C46.2002 10.62 46.0602 10.61 45.9202 10.6C45.7802 10.6 45.6502 10.59 45.5102 10.59C44.9802 10.59 44.4602 10.67 44.0602 10.81C44.1102 10.87 44.1702 10.92 44.2302 10.98C44.3002 11.03 44.3702 11.09 44.4502 11.14C44.6102 11.25 44.8002 11.35 45.0002 11.45C45.2002 11.55 45.4102 11.64 45.6202 11.72C45.8402 11.8 46.0502 11.87 46.2502 11.93C46.3602 11.96 46.4702 11.99 46.5802 12.01C46.6902 12.03 46.8102 12.06 46.9202 12.08C47.1502 12.12 47.3802 12.16 47.6102 12.18C48.0702 12.23 48.5102 12.24 48.8702 12.18C48.9202 12.18 48.9602 12.14 48.9902 12.11C49.4002 12.87 49.7702 13.66 50.0902 14.46C50.1202 14.55 50.1602 14.64 50.1902 14.72C50.0702 14.55 49.9102 14.37 49.7002 14.19C49.3902 13.91 48.9902 13.66 48.6002 13.49C48.0902 13.28 47.5302 13.13 46.9802 13.06C46.7102 13.03 46.4402 13.01 46.1902 13.02C45.9402 13.02 45.7002 13.05 45.4802 13.1C45.6502 13.35 45.9702 13.62 46.3502 13.87C46.5402 14 46.7402 14.12 46.9502 14.23C47.1502 14.34 47.3602 14.44 47.5702 14.52C47.7902 14.6 48.0102 14.69 48.2402 14.76C48.4702 14.83 48.7002 14.9 48.9302 14.95C49.3802 15.06 49.8302 15.13 50.2102 15.12C50.2602 15.12 50.3002 15.1 50.3302 15.07C50.6702 15.98 50.9602 16.92 51.1902 17.86C51.1702 17.83 51.1602 17.8 51.1402 17.77C51.0502 17.62 50.9302 17.45 50.7902 17.29C50.6502 17.13 50.4902 16.97 50.3202 16.82C50.1402 16.67 49.9602 16.54 49.7702 16.43C49.5302 16.29 49.2702 16.16 49.0002 16.05C48.8702 15.99 48.7302 15.94 48.6002 15.9C48.4702 15.85 48.3302 15.81 48.1902 15.78C47.9202 15.71 47.6502 15.66 47.3902 15.63C47.1302 15.6 46.8802 15.6 46.6602 15.62C46.6902 15.69 46.7402 15.76 46.7902 15.84C46.8402 15.91 46.9002 15.99 46.9702 16.06C47.1002 16.21 47.2702 16.36 47.4402 16.52C47.5302 16.6 47.6202 16.67 47.7102 16.74C47.8002 16.81 47.9002 16.88 48.0002 16.96C48.1902 17.1 48.3902 17.23 48.5902 17.34C48.7902 17.46 49.0102 17.57 49.2302 17.68C49.3402 17.73 49.4502 17.78 49.5702 17.83C49.6802 17.88 49.7902 17.93 49.9102 17.97C50.3602 18.15 50.8102 18.28 51.1902 18.32C51.2302 18.32 51.2802 18.32 51.3102 18.29C51.5302 19.26 51.6902 20.23 51.7902 21.22C51.7902 21.2 51.7802 21.18 51.7702 21.17C51.7002 21 51.6002 20.82 51.4802 20.63C51.2302 20.26 50.9202 19.89 50.5602 19.61C50.1202 19.26 49.5802 18.95 49.0502 18.73C48.5102 18.51 47.9802 18.38 47.5202 18.36C47.6202 18.66 47.8702 19.02 48.1802 19.37C48.2602 19.46 48.3402 19.55 48.4302 19.63C48.5102 19.72 48.6002 19.8 48.6902 19.89C48.8702 20.06 49.0602 20.22 49.2302 20.36C49.4202 20.51 49.6202 20.65 49.8402 20.79C50.0502 20.93 50.2602 21.06 50.4802 21.18C50.7002 21.3 50.9102 21.41 51.1202 21.5C51.3302 21.59 51.5302 21.66 51.7202 21.71C51.7602 21.72 51.8002 21.71 51.8402 21.71C51.8402 21.8 51.8602 21.89 51.8602 21.98L51.8802 22.22V22.46L51.9102 22.94C51.9102 23.02 51.9102 23.1 51.9102 23.18V23.42C51.9102 23.58 51.9102 23.74 51.9102 23.9L51.8902 24.73V24.7C51.8302 24.52 51.7602 24.32 51.6702 24.12C51.6202 24.02 51.5802 23.92 51.5202 23.81C51.4602 23.71 51.4002 23.61 51.3302 23.51C51.2602 23.41 51.1902 23.31 51.1202 23.22C51.0802 23.17 51.0502 23.13 51.0102 23.08C50.9702 23.04 50.9302 22.99 50.8902 22.95C50.6802 22.74 50.4602 22.54 50.2302 22.35C49.9902 22.16 49.7402 21.99 49.4802 21.84C49.3502 21.77 49.2302 21.7 49.1002 21.63C48.9702 21.57 48.8402 21.51 48.7202 21.46C48.4702 21.36 48.2202 21.29 47.9902 21.24C48.0202 21.4 48.0802 21.58 48.1802 21.77C48.2702 21.96 48.3802 22.16 48.5202 22.36C48.7802 22.76 49.1102 23.18 49.4402 23.51C49.7902 23.86 50.1802 24.21 50.5802 24.52C50.7802 24.67 50.9902 24.81 51.1902 24.94C51.3902 25.06 51.5802 25.17 51.7702 25.24C51.8102 25.26 51.8502 25.26 51.8802 25.25V25.35L51.8402 25.83C51.8302 25.99 51.8202 26.15 51.8002 26.31L51.7402 26.79C51.7002 27.11 51.6702 27.43 51.6102 27.75L51.5302 28.23V28.31C51.5102 28.22 51.4902 28.12 51.4702 28.02C51.4502 27.92 51.4202 27.81 51.3902 27.7C51.3202 27.48 51.2402 27.25 51.1402 27.03C51.0302 26.81 50.9102 26.6 50.7702 26.4C50.4302 25.92 49.9702 25.45 49.5102 25.08C49.3902 24.99 49.2802 24.9 49.1502 24.82C49.0302 24.74 48.9102 24.66 48.7802 24.59C48.5402 24.45 48.3002 24.34 48.0702 24.26C48.0702 24.43 48.1202 24.62 48.1902 24.82C48.2502 25.02 48.3402 25.24 48.4402 25.47C48.4902 25.58 48.5502 25.69 48.6102 25.81C48.6702 25.92 48.7302 26.03 48.7902 26.14C48.9202 26.36 49.0602 26.57 49.2002 26.76C49.4902 27.16 49.8402 27.58 50.2102 27.95C50.5702 28.32 50.9402 28.64 51.3002 28.85C51.3302 28.87 51.3702 28.88 51.4002 28.88L51.2302 29.65C51.0502 30.41 50.8202 31.16 50.5702 31.9C50.5702 31.71 50.5702 31.51 50.5402 31.29C50.5102 31.06 50.4502 30.81 50.3802 30.58C50.3402 30.46 50.3002 30.34 50.2602 30.23C50.2402 30.17 50.2102 30.12 50.1902 30.06C50.1602 30 50.1402 29.95 50.1102 29.89C49.8202 29.35 49.4602 28.81 49.0302 28.36C48.8202 28.14 48.6002 27.93 48.3802 27.76C48.2702 27.67 48.1602 27.59 48.0502 27.52C47.9402 27.45 47.8302 27.38 47.7202 27.33C47.7202 27.41 47.7202 27.51 47.7202 27.6C47.7202 27.7 47.7302 27.8 47.7502 27.91C47.7702 28.02 47.7902 28.13 47.8202 28.24C47.8502 28.35 47.8902 28.47 47.9202 28.59C48.0602 29.07 48.2802 29.58 48.4902 30.01C48.6102 30.24 48.7402 30.47 48.8902 30.7C49.0302 30.93 49.1802 31.15 49.3302 31.36C49.6402 31.79 49.9802 32.18 50.3002 32.44C50.3302 32.46 50.3602 32.47 50.3902 32.48C50.0202 33.47 49.5802 34.44 49.0902 35.38C49.1002 35.3 49.1202 35.23 49.1302 35.15C49.1402 35.04 49.1402 34.92 49.1502 34.8C49.1502 34.56 49.1402 34.31 49.1102 34.06C49.1002 33.94 49.0702 33.81 49.0402 33.68C49.0102 33.56 48.9802 33.43 48.9402 33.32C48.7502 32.73 48.4402 32.13 48.0902 31.61C47.9202 31.35 47.7202 31.11 47.5202 30.9C47.3202 30.69 47.1202 30.51 46.9102 30.36C46.8702 30.53 46.8502 30.73 46.8602 30.95C46.8602 31.17 46.8802 31.41 46.9202 31.67C46.9402 31.8 46.9602 31.93 46.9902 32.06C47.0102 32.19 47.0402 32.32 47.0702 32.45C47.1302 32.71 47.2102 32.96 47.2902 33.2C47.3702 33.45 47.4702 33.7 47.5802 33.95C47.6902 34.2 47.8102 34.46 47.9302 34.69C48.1702 35.17 48.4402 35.61 48.7302 35.93C48.7502 35.95 48.7702 35.97 48.8002 35.98C48.2702 36.92 47.6802 37.82 47.0402 38.68V38.65C47.0702 38.6 47.0802 38.54 47.0902 38.49C47.1202 38.38 47.1402 38.26 47.1602 38.14C47.1802 38.02 47.2002 37.9 47.2102 37.77C47.2202 37.64 47.2302 37.52 47.2302 37.38C47.2302 37.12 47.2102 36.86 47.1702 36.61C47.1202 36.3 47.0402 35.98 46.9402 35.66C46.8902 35.5 46.8402 35.35 46.7802 35.2C46.7202 35.05 46.6602 34.9 46.5902 34.76C46.3102 34.18 45.9602 33.67 45.6002 33.32C45.5302 33.48 45.4802 33.68 45.4502 33.9C45.4302 34.01 45.4302 34.13 45.4202 34.25C45.4102 34.37 45.4002 34.5 45.4002 34.63C45.4002 34.76 45.4002 34.89 45.4002 35.03L45.4202 35.43C45.4402 35.7 45.4702 35.96 45.5202 36.21C45.5502 36.34 45.5702 36.48 45.6002 36.61C45.6302 36.74 45.6602 36.88 45.6902 37.01C45.7602 37.28 45.8402 37.55 45.9202 37.82C46.0802 38.34 46.2902 38.83 46.5302 39.2C46.5502 39.22 46.5602 39.24 46.5902 39.26C45.9102 40.12 45.1702 40.93 44.3802 41.69C44.4502 41.54 44.5202 41.37 44.5902 41.19C44.7602 40.73 44.8602 40.17 44.8602 39.65C44.8602 39.49 44.8602 39.32 44.8402 39.16C44.8302 38.99 44.8102 38.83 44.7802 38.66C44.7602 38.49 44.7302 38.33 44.6902 38.17C44.6602 38.01 44.6102 37.84 44.5602 37.69C44.4702 37.37 44.3502 37.08 44.2302 36.81C44.1702 36.67 44.1002 36.55 44.0302 36.42C43.9602 36.3 43.8802 36.18 43.8002 36.08C43.7802 36.12 43.7502 36.16 43.7302 36.2C43.7102 36.24 43.6802 36.29 43.6602 36.33C43.6202 36.42 43.5802 36.53 43.5502 36.63C43.5202 36.74 43.4902 36.86 43.4602 36.98L43.4402 37.07C43.4402 37.07 43.4302 37.13 43.4202 37.16C43.4102 37.22 43.3902 37.29 43.3802 37.35C43.3302 37.61 43.3002 37.89 43.2802 38.16C43.2502 38.43 43.2402 38.71 43.2502 38.96C43.2502 39.1 43.2602 39.24 43.2702 39.38C43.2702 39.52 43.2802 39.66 43.3002 39.8C43.3202 40.08 43.3602 40.37 43.4002 40.65C43.4802 41.2 43.6002 41.73 43.7802 42.14C43.7802 42.16 43.8002 42.18 43.8202 42.2C43.6702 42.33 43.5202 42.47 43.3702 42.6C42.6802 43.2 41.9502 43.76 41.2002 44.28C41.2302 44.24 41.2602 44.19 41.2902 44.15C41.3502 44.05 41.4202 43.94 41.4802 43.83C41.7302 43.39 41.9202 42.84 42.0102 42.33C42.0402 42.17 42.0602 42 42.0702 41.83C42.0802 41.66 42.0902 41.49 42.1002 41.32C42.1002 41.15 42.1002 40.98 42.1002 40.81C42.1002 40.64 42.0702 40.47 42.0502 40.3C41.9602 39.63 41.8002 39.03 41.5502 38.55C41.4302 38.69 41.3102 38.86 41.2102 39.07C41.1002 39.28 41.0102 39.52 40.9202 39.77C40.8302 40.02 40.7502 40.3 40.6802 40.57C40.6102 40.84 40.5502 41.11 40.5102 41.37C40.4702 41.65 40.4402 41.93 40.4102 42.22C40.3902 42.51 40.3702 42.8 40.3702 43.09C40.3702 43.66 40.3902 44.21 40.5002 44.66C40.5002 44.68 40.5202 44.7 40.5302 44.72C40.4402 44.77 40.3602 44.83 40.2802 44.89C39.4002 45.43 38.4902 45.92 37.5602 46.35C37.6702 46.24 37.7802 46.11 37.8902 45.98C37.9702 45.88 38.0502 45.77 38.1302 45.66C38.2102 45.55 38.2802 45.44 38.3502 45.31C38.4802 45.07 38.6002 44.81 38.6902 44.56C38.8002 44.25 38.8802 43.9 38.9502 43.56C39.0102 43.22 39.0602 42.88 39.0702 42.53C39.0802 42.19 39.0702 41.86 39.0402 41.55C39.0202 41.4 39.0002 41.25 38.9702 41.1C38.9402 40.95 38.9002 40.82 38.8602 40.69C38.8202 40.72 38.7902 40.75 38.7502 40.79C38.7102 40.82 38.6802 40.86 38.6402 40.9C38.5702 40.98 38.5002 41.06 38.4302 41.16C38.3602 41.26 38.2902 41.36 38.2202 41.47C38.1502 41.58 38.0802 41.69 38.0202 41.81C37.9502 41.93 37.8902 42.05 37.8302 42.18C37.7702 42.31 37.7102 42.44 37.6502 42.57C37.5302 42.83 37.4302 43.09 37.3502 43.35C37.3102 43.49 37.2702 43.62 37.2202 43.76C37.1802 43.9 37.1402 44.04 37.1002 44.18C37.0302 44.47 36.9602 44.76 36.9102 45.05C36.8002 45.62 36.7402 46.18 36.7702 46.65C36.7702 46.67 36.7702 46.68 36.7802 46.7L36.4202 46.85L36.2002 46.94C36.1302 46.97 36.0502 47 35.9702 47.02C35.6702 47.13 35.3702 47.24 35.0602 47.35L34.1402 47.64C33.9902 47.69 33.8302 47.73 33.6802 47.77L33.4902 47.82C33.4902 47.82 33.5502 47.78 33.5802 47.76C33.6802 47.69 33.7802 47.6 33.8802 47.51C34.0802 47.33 34.2702 47.13 34.4502 46.92C34.6302 46.7 34.7902 46.46 34.9202 46.22C35.0002 46.07 35.0802 45.92 35.1602 45.76C35.2302 45.6 35.3002 45.43 35.3602 45.26C35.4802 44.92 35.5902 44.59 35.6602 44.25C35.8002 43.56 35.8402 42.91 35.7702 42.36C35.6102 42.45 35.4302 42.58 35.2602 42.75C35.2202 42.79 35.1702 42.84 35.1302 42.88C35.0902 42.93 35.0402 42.98 35.0002 43.02C34.9102 43.12 34.8202 43.22 34.7402 43.33C34.6502 43.44 34.5702 43.55 34.4802 43.67L34.4202 43.76L34.3602 43.85C34.3202 43.91 34.2802 43.97 34.2402 44.03C34.0802 44.27 33.9302 44.52 33.8002 44.76C33.6602 45.01 33.5302 45.28 33.4102 45.55C33.3502 45.69 33.2902 45.83 33.2302 45.97C33.1702 46.11 33.1202 46.25 33.0602 46.39C32.8502 46.94 32.6902 47.5 32.6402 47.98C32.6402 47.99 32.6402 48 32.6402 48.02C31.5802 48.26 30.5102 48.43 29.4302 48.53L29.4702 48.93C30.5702 48.82 31.6502 48.64 32.7302 48.39C32.7302 48.41 32.7402 48.43 32.7502 48.44C33.0002 48.84 33.4102 49.26 33.9202 49.63C34.0502 49.72 34.1802 49.82 34.3202 49.9C34.4602 49.98 34.6002 50.06 34.7402 50.14C35.0302 50.29 35.3402 50.43 35.6502 50.55C35.9402 50.65 36.2802 50.73 36.6302 50.8C36.7202 50.82 36.8102 50.83 36.9002 50.84L37.0402 50.86H37.1802C37.3602 50.89 37.5402 50.9 37.7202 50.9C37.9002 50.9 38.0802 50.9 38.2602 50.9C38.3502 50.9 38.4402 50.89 38.5202 50.88C38.6102 50.88 38.6902 50.86 38.7702 50.85C39.1002 50.8 39.4002 50.72 39.6502 50.62C39.2102 50.24 38.5802 49.88 37.9002 49.55C37.5602 49.39 37.2002 49.22 36.8502 49.07C36.6702 49 36.5002 48.93 36.3202 48.86C36.1402 48.79 35.9702 48.72 35.8002 48.66C35.5302 48.56 35.2402 48.48 34.9602 48.41C34.6702 48.34 34.3902 48.28 34.1202 48.24C33.9902 48.22 33.8602 48.21 33.7302 48.19C33.6802 48.19 33.6402 48.19 33.6002 48.18L33.8102 48.12C33.9702 48.08 34.1302 48.04 34.2802 47.99L35.2102 47.69C35.5202 47.58 35.8202 47.46 36.1302 47.35C36.2102 47.32 36.2802 47.29 36.3602 47.26L36.5902 47.16L36.9502 47.01C36.9502 47.01 36.9702 47.05 36.9802 47.06C37.3002 47.41 37.7602 47.74 38.3102 48.01C38.5902 48.15 38.8802 48.26 39.1902 48.36C39.3402 48.41 39.5002 48.45 39.6602 48.49C39.7402 48.51 39.8202 48.53 39.9002 48.55C39.9802 48.57 40.0602 48.58 40.1402 48.59C40.4402 48.64 40.7802 48.66 41.1302 48.67C41.3102 48.67 41.4802 48.67 41.6602 48.65C41.8402 48.64 42.0102 48.61 42.1902 48.59C42.3702 48.56 42.5402 48.53 42.7102 48.49C42.8802 48.45 43.0402 48.4 43.1902 48.35C43.3402 48.3 43.4902 48.24 43.6302 48.18C43.7002 48.15 43.7602 48.12 43.8302 48.09C43.8902 48.06 43.9502 48.02 44.0002 47.98C43.8802 47.91 43.7502 47.84 43.6002 47.77C43.4602 47.7 43.3002 47.64 43.1502 47.58C42.8302 47.46 42.4902 47.34 42.1302 47.24C41.7802 47.14 41.4002 47.04 41.0402 46.96C40.6702 46.87 40.3102 46.81 39.9502 46.74C39.6702 46.69 39.3802 46.66 39.0902 46.64C38.9502 46.64 38.8002 46.62 38.6602 46.62C38.5202 46.62 38.3802 46.62 38.2502 46.62C38.0602 46.62 37.8702 46.64 37.7002 46.65C38.6602 46.2 39.5902 45.7 40.4902 45.14C40.5802 45.09 40.6602 45.03 40.7502 44.97C40.7602 44.99 40.7802 45.01 40.8002 45.02C41.1602 45.3 41.6702 45.54 42.2502 45.72C42.5402 45.8 42.8402 45.87 43.1602 45.91C43.4702 45.96 43.8002 45.98 44.1102 45.98C44.4102 45.98 44.7402 45.95 45.0802 45.9C45.4202 45.84 45.7602 45.75 46.0902 45.65C46.4302 45.55 46.7402 45.41 47.0202 45.26C47.3002 45.11 47.5502 44.95 47.7402 44.77C47.2202 44.57 46.5402 44.44 45.8202 44.36C45.6402 44.34 45.4602 44.33 45.2702 44.31C45.0802 44.29 44.9002 44.28 44.7102 44.27C44.5302 44.26 44.3402 44.25 44.1602 44.25C43.9802 44.25 43.8002 44.25 43.6302 44.25C43.0702 44.25 42.4902 44.32 41.9702 44.41C41.8402 44.43 41.7202 44.46 41.6002 44.49C41.5402 44.51 41.4802 44.52 41.4202 44.54C42.1902 44.01 42.9202 43.43 43.6302 42.82C43.7802 42.69 43.9302 42.55 44.0802 42.41C44.1002 42.43 44.1202 42.45 44.1402 42.46C44.5402 42.67 45.0702 42.83 45.6502 42.9C45.9402 42.93 46.2402 42.95 46.5602 42.94C46.7202 42.94 46.8702 42.93 47.0302 42.92C47.1902 42.91 47.3402 42.88 47.4902 42.86C47.7802 42.81 48.0902 42.73 48.4102 42.63C48.7202 42.52 49.0402 42.38 49.3402 42.23C49.4202 42.19 49.4902 42.15 49.5602 42.11L49.6702 42.05C49.6702 42.05 49.7402 42.01 49.7702 41.98C49.9102 41.89 50.0402 41.8 50.1602 41.7C50.2802 41.61 50.4002 41.51 50.5002 41.41C50.5502 41.36 50.6002 41.31 50.6502 41.26C50.6902 41.21 50.7402 41.16 50.7802 41.11C50.6502 41.08 50.5002 41.06 50.3602 41.04C50.2102 41.02 50.0502 41.01 49.8902 41C49.5602 40.99 49.2202 40.99 48.8602 41C48.6802 41 48.5102 41.02 48.3202 41.04C48.1402 41.05 47.9602 41.07 47.7802 41.09C47.6002 41.11 47.4202 41.13 47.2502 41.16C47.0702 41.19 46.9002 41.21 46.7302 41.24C46.1802 41.32 45.6402 41.49 45.1502 41.66C44.9502 41.73 44.7702 41.81 44.6102 41.89C45.4102 41.11 46.1702 40.28 46.8602 39.39C46.8802 39.41 46.9102 39.42 46.9302 39.43C47.3502 39.57 47.8802 39.64 48.4602 39.62C48.7402 39.61 49.0402 39.57 49.3402 39.52C49.4902 39.49 49.6402 39.46 49.7902 39.42C49.8602 39.4 49.9402 39.38 50.0102 39.36C50.0802 39.34 50.1502 39.31 50.2302 39.29C50.5002 39.2 50.7902 39.07 51.0802 38.92C51.1502 38.88 51.2302 38.84 51.3002 38.8C51.3702 38.76 51.4402 38.71 51.5102 38.67C51.6502 38.58 51.7902 38.48 51.9202 38.39C52.0502 38.29 52.1802 38.19 52.3102 38.08C52.4302 37.97 52.5402 37.86 52.6502 37.75C52.8602 37.53 53.0302 37.31 53.1602 37.09C52.6202 37.06 51.9602 37.15 51.2902 37.3C51.1202 37.34 50.9502 37.37 50.7702 37.42C50.6002 37.46 50.4202 37.51 50.2502 37.55C49.9102 37.64 49.5802 37.75 49.2502 37.85C48.9902 37.93 48.7402 38.04 48.5002 38.15C48.3802 38.21 48.2602 38.27 48.1402 38.32C48.0202 38.38 47.9102 38.44 47.8002 38.5C47.6902 38.56 47.5902 38.63 47.4902 38.69C47.4402 38.72 47.4002 38.75 47.3502 38.78L47.2802 38.83C47.9402 37.94 48.5302 37.02 49.0702 36.06C49.1002 36.08 49.1302 36.09 49.1602 36.1C49.5802 36.17 50.1102 36.15 50.6602 36.04C50.9402 35.99 51.2202 35.91 51.5002 35.81C51.7802 35.71 52.0602 35.59 52.3202 35.45C52.5702 35.32 52.8202 35.15 53.0802 34.96C53.2102 34.86 53.3302 34.76 53.4602 34.66C53.5802 34.55 53.7002 34.44 53.8102 34.32C54.0302 34.09 54.2402 33.84 54.4202 33.6C54.5802 33.35 54.7202 33.11 54.8002 32.89C54.5402 32.92 54.2502 32.98 53.9502 33.06C53.6502 33.14 53.3402 33.25 53.0202 33.37C52.3802 33.61 51.7402 33.91 51.1402 34.21C51.0202 34.27 50.9102 34.34 50.8002 34.4C50.6902 34.47 50.5802 34.54 50.4602 34.61C50.2402 34.76 50.0302 34.91 49.8402 35.06C49.7502 35.14 49.6602 35.21 49.5702 35.29C49.5002 35.35 49.4302 35.42 49.3602 35.48C49.8602 34.52 50.3002 33.53 50.6702 32.51C50.7002 32.53 50.7302 32.54 50.7702 32.54C51.2002 32.54 51.7002 32.45 52.2102 32.26C52.4702 32.16 52.7302 32.05 52.9902 31.91C53.2402 31.77 53.4902 31.61 53.7202 31.44C54.1702 31.12 54.6202 30.64 55.0002 30.13C55.1002 30 55.1802 29.87 55.2602 29.74C55.3402 29.61 55.4102 29.48 55.4702 29.35C55.5302 29.22 55.5902 29.09 55.6402 28.97C55.6902 28.85 55.7202 28.72 55.7402 28.61C55.6202 28.64 55.4902 28.68 55.3602 28.73C55.2302 28.78 55.0902 28.84 54.9502 28.9C54.6702 29.03 54.3802 29.17 54.0902 29.34C53.5202 29.67 52.9202 30.05 52.4102 30.43C52.3602 30.47 52.3102 30.51 52.2602 30.55C52.2102 30.59 52.1602 30.63 52.1102 30.67C52.0102 30.75 51.9102 30.84 51.8102 30.93C51.6202 31.1 51.4402 31.29 51.2802 31.46C51.1202 31.63 50.9802 31.8 50.8702 31.95C51.1202 31.2 51.3502 30.44 51.5302 29.66L51.7002 28.88L51.6502 28.92Z" fill="url(#paint1_linear_312_78)"/>
</g>
<defs>
<linearGradient id="paint0_linear_312_78" x1="19.3598" y1="0.970049" x2="10.7698" y2="49.71" gradientUnits="userSpaceOnUse">
<stop offset="0.04" stop-color="#C19859"/>
<stop offset="0.11" stop-color="#D0B07A"/>
<stop offset="0.28" stop-color="#F1E6C4"/>
<stop offset="0.36" stop-color="#FAF5D7"/>
<stop offset="0.37" stop-color="#D2BC8C"/>
<stop offset="0.38" stop-color="#B28F4F"/>
<stop offset="0.39" stop-color="#885400"/>
<stop offset="0.44" stop-color="#8C5804"/>
<stop offset="0.5" stop-color="#986410"/>
<stop offset="0.55" stop-color="#AD7924"/>
<stop offset="0.59" stop-color="#C18C37"/>
<stop offset="0.6" stop-color="#CA9740"/>
<stop offset="0.65" stop-color="#E6BC5F"/>
<stop offset="0.68" stop-color="#F8D372"/>
<stop offset="0.7" stop-color="#FFDC7A"/>
<stop offset="0.87" stop-color="#D09F47"/>
<stop offset="0.92" stop-color="#C18C37"/>
</linearGradient>
<linearGradient id="paint1_linear_312_78" x1="48.7202" y1="1.17003" x2="39.8702" y2="51.39" gradientUnits="userSpaceOnUse">
<stop offset="0.04" stop-color="#C19859"/>
<stop offset="0.11" stop-color="#D0B07A"/>
<stop offset="0.28" stop-color="#F1E6C4"/>
<stop offset="0.36" stop-color="#FAF5D7"/>
<stop offset="0.37" stop-color="#D2BC8C"/>
<stop offset="0.38" stop-color="#B28F4F"/>
<stop offset="0.39" stop-color="#885400"/>
<stop offset="0.44" stop-color="#8C5804"/>
<stop offset="0.5" stop-color="#986410"/>
<stop offset="0.55" stop-color="#AD7924"/>
<stop offset="0.59" stop-color="#C18C37"/>
<stop offset="0.6" stop-color="#CA9740"/>
<stop offset="0.65" stop-color="#E6BC5F"/>
<stop offset="0.68" stop-color="#F8D372"/>
<stop offset="0.7" stop-color="#FFDC7A"/>
<stop offset="0.87" stop-color="#D09F47"/>
<stop offset="0.92" stop-color="#C18C37"/>
</linearGradient>
<clipPath id="clip0_312_78">
<rect width="55.99" height="50.92" fill="white"/>
</clipPath>
</defs>
</svg>
