<svg width="33" height="33" viewBox="0 0 33 33" fill="none" xmlns="http://www.w3.org/2000/svg">
<path fill-rule="evenodd" clip-rule="evenodd" d="M21.5114 14.6205C21.5114 18.5725 18.3077 21.7762 14.3557 21.7762C10.4037 21.7762 7.2 18.5725 7.2 14.6205C7.2 10.6685 10.4037 7.46483 14.3557 7.46483C18.3077 7.46483 21.5114 10.6685 21.5114 14.6205ZM19.792 20.9661C18.3307 22.2192 16.4316 22.9762 14.3557 22.9762C9.74097 22.9762 6 19.2352 6 14.6205C6 10.0058 9.74097 6.26483 14.3557 6.26483C18.9704 6.26483 22.7114 10.0058 22.7114 14.6205C22.7114 16.6966 21.9542 18.5958 20.701 20.0571L24.9998 24.3559L24.0908 25.2649L19.792 20.9661Z" fill="#222222"/>
</svg>
