<svg width="18" height="22" viewBox="0 0 18 22" fill="none" xmlns="http://www.w3.org/2000/svg">
<g clip-path="url(#clip0_1605_1293)">
<path d="M10.954 18.9528C10.8395 19.2392 10.7392 19.5542 10.6247 19.8406C10.5244 19.5542 10.4242 19.2392 10.2953 18.9528L9.37891 16.8049H8.19043V21.4013H9.16413V19.5399C9.14218 19.0603 9.09438 18.5823 9.02093 18.108V18.108L9.4505 19.1819L10.281 21.115H10.911L11.7416 19.1819L12.1711 18.108C12.0977 18.5823 12.0499 19.0603 12.0279 19.5399V21.4586H13.0159V16.8622H11.8131L10.954 18.9528Z" fill="#333333"/>
<path d="M16.9248 16.8622L16.395 17.9791L15.9081 19.0101C15.7506 18.6521 15.5931 18.3227 15.4499 17.9791L14.9058 16.8622H13.7603L15.3783 19.726V21.4013H16.4522V19.7833L18.0846 16.9195L16.9248 16.8622Z" fill="#333333"/>
<path d="M7.14524 11.2205C6.40726 10.7779 5.80064 10.1465 5.38787 9.39145C4.9751 8.63639 4.77111 7.78492 4.79691 6.92477C4.79691 5.77409 5.25402 4.67053 6.06768 3.85687C6.88134 3.04321 7.9849 2.58611 9.13559 2.58611C10.2863 2.58611 11.3898 3.04321 12.2035 3.85687C13.0171 4.67053 13.4743 5.77409 13.4743 6.92477C13.5001 7.78492 13.2961 8.63639 12.8833 9.39145C12.4705 10.1465 11.8639 10.7779 11.1259 11.2205C10.9633 11.3207 10.8454 11.4796 10.7966 11.6644C10.6553 12.1406 10.7014 12.6529 10.9255 13.0963C10.9694 13.1817 11.0301 13.2574 11.1039 13.3189C11.1777 13.3804 11.2631 13.4265 11.355 13.4543C12.5189 13.8013 13.5839 14.4197 14.4623 15.2585H16.3667C15.302 13.8634 13.8541 12.8086 12.1999 12.2228C13.0434 11.6355 13.7309 10.8511 14.2025 9.93783C14.6741 9.02453 14.9157 8.0099 14.9062 6.98205C14.9062 5.4516 14.2982 3.98383 13.216 2.90164C12.1338 1.81945 10.666 1.21148 9.13559 1.21148C7.60514 1.21148 6.13737 1.81945 5.05518 2.90164C3.97298 3.98383 3.36501 5.4516 3.36501 6.98205C3.3555 8.0099 3.59705 9.02453 4.06867 9.93783C4.5403 10.8511 5.22774 11.6355 6.07131 12.2228C4.29255 12.8472 2.75231 14.0099 1.66436 15.5495C0.576404 17.089 -0.00528173 18.9291 3.61399e-05 20.8143C3.61399e-05 21.0041 0.0754661 21.1862 0.209733 21.3205C0.344 21.4548 0.526106 21.5302 0.715988 21.5302C0.905871 21.5302 1.08798 21.4548 1.22224 21.3205C1.35651 21.1862 1.43194 21.0041 1.43194 20.8143C1.43088 19.164 1.96272 17.5576 2.9483 16.234C3.93389 14.9104 5.32052 13.9405 6.90182 13.4686C6.99377 13.4408 7.07919 13.3948 7.15299 13.3333C7.22679 13.2718 7.28746 13.196 7.33139 13.1106C7.55261 12.6664 7.59862 12.1552 7.46026 11.6787C7.44174 11.5849 7.40425 11.4958 7.35008 11.4171C7.29591 11.3383 7.2262 11.2714 7.14524 11.2205Z" fill="#333333"/>
</g>
<defs>
<clipPath id="clip0_1605_1293">
<rect width="17.9847" height="21.5159" fill="white"/>
</clipPath>
</defs>
</svg>
