<svg width="10" height="10" viewBox="0 0 10 10" fill="none" xmlns="http://www.w3.org/2000/svg">
<path d="M6.3604 3.71538L5.1393 1.06804C5.05312 0.88121 4.78759 0.88121 4.70142 1.06804L3.48032 3.71538C3.4452 3.79152 3.37303 3.84395 3.28976 3.85382L0.394655 4.19708C0.19034 4.22131 0.108287 4.47384 0.259342 4.61354L2.39977 6.59294C2.46133 6.64988 2.4889 6.73471 2.47255 6.81695L1.90438 9.67644C1.86428 9.87824 2.0791 10.0343 2.25863 9.93382L4.80259 8.50982C4.87576 8.46886 4.96496 8.46886 5.03813 8.50982L7.58208 9.93382C7.76162 10.0343 7.97643 9.87824 7.93634 9.67644L7.36816 6.81695C7.35182 6.73471 7.37938 6.64988 7.44095 6.59294L9.58137 4.61354C9.73243 4.47384 9.65037 4.22131 9.44606 4.19708L6.55095 3.85382C6.46768 3.84395 6.39552 3.79152 6.3604 3.71538Z" fill="#FFB525"/>
</svg>
